{
  "source": "C:\\Users\\Peter\\Desktop\\stuff\\MIUN\\quantitative_research\\video_compression\\videos\\HEVC_CLASS_B\\Cactus_1920x1080_50.y4m",
  "output": "C:\\Users\\Peter\\Desktop\\stuff\\MIUN\\quantitative_research\\video_compression\\compressed_videos\\HEVC_CLASS_B\\av1\\2.5\\Cactus_1920x1080_50_av1.mkv",
  "codec": "av1",
  "ok": "Input #0, yuv4mpegpipe, from 'C:\\Users\\Peter\\Desktop\\stuff\\MIUN\\quantitative_research\\video_compression\\videos\\HEVC_CLASS_B\\Cactus_1920x1080_50.y4m':\n  Duration: 00:00:10.00, start: 0.000000, bitrate: 1244162 kb/s\n  Stream #0:0: Video: rawvideo (I420 / 0x30323449), yuv420p(progressive), 1920x1080, 50 fps, 50 tbr, 50 tbn\n[out#0/matroska @ 000002b5857a8ec0] Codec AVOption b:a (set bitrate (in bits/s)) has not been used for any stream. The most likely reason is either wrong type (e.g. a video option with no video streams) or that it is a private option of some decoder which was not actually used for any stream.\nStream mapping:\n  Stream #0:0 -> #0:0 (rawvideo (native) -> av1 (libsvtav1))\nPress [q] to stop, [?] for help\nSvt[info]: -------------------------------------------\nSvt[info]: SVT [version]:\tSVT-AV1 Encoder Lib v3.1.0-19-g6ecfe8ec\nSvt[info]: SVT [build]  :\tGCC 15.2.0\t 64 bit\nSvt[info]: LIB Build date: Aug 17 2025 11:37:13\nSvt[info]: -------------------------------------------\n[libsvtav1 @ 000002b5857ac080] Specified chroma sample location center is unsupported on the AV1 bit stream level. Usage of a container that allows passing this information - such as Matroska - is recommended.\nSvt[info]: Level of Parallelism: 5\nSvt[info]: Number of PPCS 93\nSvt[info]: [asm level on system : up to avx2]\nSvt[info]: [asm level selected : up to avx2]\nSvt[info]: -------------------------------------------\nSvt[info]: SVT [config]: main profile\ttier (auto)\tlevel (auto)\nSvt[info]: SVT [config]: width / height / fps numerator / fps denominator \t\t: 1920 / 1080 / 50 / 1\nSvt[info]: SVT [config]: bit-depth / color format \t\t\t\t\t: 8 / YUV420\nSvt[info]: SVT [config]: preset / tune / pred struct \t\t\t\t\t: 4 / PSNR / random access\nSvt[info]: SVT [config]: gop size / mini-gop size / key-frame type \t\t\t: 321 / 16 / key frame\nSvt[info]: SVT [config]: BRC mode / target bitrate (kbps)\t\t\t\t: VBR / 2500 \nSvt[info]: SVT [config]: AQ mode / Variance Boost \t\t\t\t\t: 2 / 0\nSvt[info]: SVT [config]: sharpness / luminance-based QP bias \t\t\t\t: 0 / 0\nSvt[info]: SVT [config]: QP scale compress strength \t\t\t\t\t: 0\nSvt[info]: -------------------------------------------\nOutput #0, matroska, to 'C:\\Users\\Peter\\Desktop\\stuff\\MIUN\\quantitative_research\\video_compression\\compressed_videos\\HEVC_CLASS_B\\av1\\2.5\\Cactus_1920x1080_50_av1.mkv':\n  Metadata:\n    encoder         : Lavf62.3.100\n  Stream #0:0: Video: av1 (AV01 / 0x31305641), yuv420p(tv, progressive), 1920x1080, q=2-31, 2500 kb/s, 50 fps, 1k tbn\n    Metadata:\n      encoder         : Lavc62.11.100 libsvtav1\n    Side data:\n      cpb: bitrate max/min/avg: 0/0/2500000 buffer size: 2500000 vbv_delay: N/A\nframe=    0 fps=0.0 q=0.0 size=       0KiB time=N/A bitrate=N/A speed=N/A elapsed=0:00:03.73    \nframe=    0 fps=0.0 q=0.0 size=       0KiB time=N/A bitrate=N/A speed=N/A elapsed=0:00:04.25    \nframe=    0 fps=0.0 q=0.0 size=       0KiB time=N/A bitrate=N/A speed=N/A elapsed=0:00:04.76    \nframe=    0 fps=0.0 q=0.0 size=       0KiB time=N/A bitrate=N/A speed=N/A elapsed=0:00:05.34    \nframe=    0 fps=0.0 q=0.0 size=       0KiB time=N/A bitrate=N/A speed=N/A elapsed=0:00:05.90    \nframe=    0 fps=0.0 q=0.0 size=       0KiB time=N/A bitrate=N/A speed=N/A elapsed=0:00:06.56    \nframe=    0 fps=0.0 q=0.0 size=       0KiB time=N/A bitrate=N/A speed=N/A elapsed=0:00:07.23    \nframe=    0 fps=0.0 q=0.0 size=       0KiB time=N/A bitrate=N/A speed=N/A elapsed=0:00:07.80    \nframe=    0 fps=0.0 q=0.0 size=       0KiB time=N/A bitrate=N/A speed=N/A elapsed=0:00:08.44    \nframe=    0 fps=0.0 q=0.0 size=       0KiB time=N/A bitrate=N/A speed=N/A elapsed=0:00:09.01    \nframe=    0 fps=0.0 q=0.0 size=       0KiB time=N/A bitrate=N/A speed=N/A elapsed=0:00:09.57    \nframe=    0 fps=0.0 q=0.0 size=       0KiB time=N/A bitrate=N/A speed=N/A elapsed=0:00:10.11    \nframe=    0 fps=0.0 q=0.0 size=       0KiB time=N/A bitrate=N/A speed=N/A elapsed=0:00:10.63    \nframe=    0 fps=0.0 q=0.0 size=       0KiB time=N/A bitrate=N/A speed=N/A elapsed=0:00:11.15    \nframe=    0 fps=0.0 q=0.0 size=       0KiB time=N/A bitrate=N/A speed=N/A elapsed=0:00:11.68    \nframe=    0 fps=0.0 q=0.0 size=       0KiB time=N/A bitrate=N/A speed=N/A elapsed=0:00:12.21    \nframe=    0 fps=0.0 q=0.0 size=       0KiB time=N/A bitrate=N/A speed=N/A elapsed=0:00:12.73    \nframe=    0 fps=0.0 q=0.0 size=       0KiB time=N/A bitrate=N/A speed=N/A elapsed=0:00:13.25    \nframe=    0 fps=0.0 q=0.0 size=       0KiB time=N/A bitrate=N/A speed=N/A elapsed=0:00:13.81    \nframe=    0 fps=0.0 q=0.0 size=       0KiB time=N/A bitrate=N/A speed=N/A elapsed=0:00:14.34    \nframe=    0 fps=0.0 q=0.0 size=       0KiB time=N/A bitrate=N/A speed=N/A elapsed=0:00:14.99    \nframe=    0 fps=0.0 q=0.0 size=       0KiB time=N/A bitrate=N/A speed=N/A elapsed=0:00:15.55    \nframe=    0 fps=0.0 q=0.0 size=       0KiB time=N/A bitrate=N/A speed=N/A elapsed=0:00:16.13    \nframe=    0 fps=0.0 q=0.0 size=       0KiB time=N/A bitrate=N/A speed=N/A elapsed=0:00:16.70    \nframe=    0 fps=0.0 q=0.0 size=       0KiB time=N/A bitrate=N/A speed=N/A elapsed=0:00:17.27    \nframe=    0 fps=0.0 q=0.0 size=       0KiB time=N/A bitrate=N/A speed=N/A elapsed=0:00:17.79    \nframe=    0 fps=0.0 q=0.0 size=       0KiB time=N/A bitrate=N/A speed=N/A elapsed=0:00:18.35    \nframe=    0 fps=0.0 q=0.0 size=       0KiB time=N/A bitrate=N/A speed=N/A elapsed=0:00:18.88    \nframe=    0 fps=0.0 q=0.0 size=       0KiB time=N/A bitrate=N/A speed=N/A elapsed=0:00:19.45    \nframe=    0 fps=0.0 q=0.0 size=       0KiB time=N/A bitrate=N/A speed=N/A elapsed=0:00:20.03    \nframe=    0 fps=0.0 q=0.0 size=       0KiB time=N/A bitrate=N/A speed=N/A elapsed=0:00:20.61    \nframe=    0 fps=0.0 q=0.0 size=       0KiB time=N/A bitrate=N/A speed=N/A elapsed=0:00:21.16    \nframe=    0 fps=0.0 q=0.0 size=       0KiB time=N/A bitrate=N/A speed=N/A elapsed=0:00:21.67    \nframe=    0 fps=0.0 q=0.0 size=       0KiB time=N/A bitrate=N/A speed=N/A elapsed=0:00:22.25    \nframe=    0 fps=0.0 q=0.0 size=       0KiB time=N/A bitrate=N/A speed=N/A elapsed=0:00:22.84    \nframe=    0 fps=0.0 q=0.0 size=       0KiB time=N/A bitrate=N/A speed=N/A elapsed=0:00:23.41    \nframe=    0 fps=0.0 q=0.0 size=       0KiB time=N/A bitrate=N/A speed=N/A elapsed=0:00:23.94    \nframe=    0 fps=0.0 q=0.0 size=       0KiB time=N/A bitrate=N/A speed=N/A elapsed=0:00:24.47    \nframe=    0 fps=0.0 q=0.0 size=       0KiB time=N/A bitrate=N/A speed=N/A elapsed=0:00:24.98    \nframe=    0 fps=0.0 q=0.0 size=       0KiB time=N/A bitrate=N/A speed=N/A elapsed=0:00:25.53    \nframe=    1 fps=0.0 q=21.0 size=       1KiB time=00:00:00.00 bitrate=N/A speed=   0x elapsed=0:00:26.11    \nframe=    1 fps=0.0 q=21.0 size=       1KiB time=00:00:00.00 bitrate=N/A speed=   0x elapsed=0:00:26.65    \nframe=    1 fps=0.0 q=21.0 size=       1KiB time=00:00:00.00 bitrate=N/A speed=   0x elapsed=0:00:27.18    \nframe=    1 fps=0.0 q=21.0 size=       1KiB time=00:00:00.00 bitrate=N/A speed=   0x elapsed=0:00:27.72    \nframe=    1 fps=0.0 q=21.0 size=       1KiB time=00:00:00.00 bitrate=N/A speed=   0x elapsed=0:00:28.28    \nframe=    1 fps=0.0 q=21.0 size=       1KiB time=00:00:00.00 bitrate=N/A speed=   0x elapsed=0:00:28.79    \nframe=    1 fps=0.0 q=21.0 size=       1KiB time=00:00:00.00 bitrate=N/A speed=   0x elapsed=0:00:29.31    \nframe=    1 fps=0.0 q=21.0 size=       1KiB time=00:00:00.00 bitrate=N/A speed=   0x elapsed=0:00:29.97    \nframe=    1 fps=0.0 q=21.0 size=       1KiB time=00:00:00.00 bitrate=N/A speed=   0x elapsed=0:00:30.52    \nframe=    1 fps=0.0 q=21.0 size=       1KiB time=00:00:00.00 bitrate=N/A speed=   0x elapsed=0:00:31.08    \nframe=    1 fps=0.0 q=21.0 size=       1KiB time=00:00:00.00 bitrate=N/A speed=   0x elapsed=0:00:31.65    \nframe=    1 fps=0.0 q=21.0 size=       1KiB time=00:00:00.00 bitrate=N/A speed=   0x elapsed=0:00:32.24    \nframe=    1 fps=0.0 q=21.0 size=       1KiB time=00:00:00.00 bitrate=N/A speed=   0x elapsed=0:00:32.75    \nframe=    1 fps=0.0 q=21.0 size=       1KiB time=00:00:00.00 bitrate=N/A speed=   0x elapsed=0:00:33.28    \nframe=    2 fps=0.1 q=51.0 size=       1KiB time=00:00:00.02 bitrate= 224.8kbits/s speed=0.000591x elapsed=0:00:33.82    \nframe=    3 fps=0.1 q=48.0 size=       1KiB time=00:00:00.04 bitrate= 112.4kbits/s speed=0.00116x elapsed=0:00:34.37    \nframe=    5 fps=0.1 q=46.0 size=       1KiB time=00:00:00.08 bitrate=  56.2kbits/s speed=0.00229x elapsed=0:00:34.92    \nframe=    7 fps=0.2 q=47.0 size=       1KiB time=00:00:00.12 bitrate=  37.5kbits/s speed=0.00339x elapsed=0:00:35.43    \nframe=    8 fps=0.2 q=47.0 size=       1KiB time=00:00:00.14 bitrate=  32.1kbits/s speed=0.00389x elapsed=0:00:35.97    \nframe=    9 fps=0.2 q=43.0 size=       1KiB time=00:00:00.16 bitrate=  28.1kbits/s speed=0.00439x elapsed=0:00:36.48    \nframe=   11 fps=0.3 q=47.0 size=       1KiB time=00:00:00.20 bitrate=  22.5kbits/s speed=0.0054x elapsed=0:00:37.00    \nframe=   12 fps=0.3 q=46.0 size=       1KiB time=00:00:00.22 bitrate=  20.4kbits/s speed=0.00586x elapsed=0:00:37.54    \nframe=   13 fps=0.3 q=45.0 size=       1KiB time=00:00:00.24 bitrate=  18.7kbits/s speed=0.0063x elapsed=0:00:38.07    \nframe=   15 fps=0.4 q=47.0 size=       1KiB time=00:00:00.28 bitrate=  16.1kbits/s speed=0.00725x elapsed=0:00:38.62    \nframe=   16 fps=0.4 q=45.0 size=       1KiB time=00:00:00.30 bitrate=  15.0kbits/s speed=0.00766x elapsed=0:00:39.17    \nframe=   16 fps=0.4 q=45.0 size=       1KiB time=00:00:00.30 bitrate=  15.0kbits/s speed=0.00756x elapsed=0:00:39.70    \nframe=   17 fps=0.4 q=32.0 size=       1KiB time=00:00:00.32 bitrate=  14.1kbits/s speed=0.00795x elapsed=0:00:40.24    \nframe=   18 fps=0.4 q=43.0 size=       1KiB time=00:00:00.34 bitrate=  13.2kbits/s speed=0.00832x elapsed=0:00:40.86    \nframe=   18 fps=0.4 q=43.0 size=       1KiB time=00:00:00.34 bitrate=  13.2kbits/s speed=0.00819x elapsed=0:00:41.49    \nframe=   19 fps=0.5 q=45.0 size=       1KiB time=00:00:00.36 bitrate=  12.5kbits/s speed=0.00857x elapsed=0:00:42.00    \nframe=   19 fps=0.4 q=45.0 size=       1KiB time=00:00:00.36 bitrate=  12.5kbits/s speed=0.00847x elapsed=0:00:42.51    \nframe=   20 fps=0.5 q=43.0 size=       1KiB time=00:00:00.38 bitrate=  11.8kbits/s speed=0.00883x elapsed=0:00:43.04    \nframe=   22 fps=0.5 q=42.0 size=       1KiB time=00:00:00.42 bitrate=  10.7kbits/s speed=0.00964x elapsed=0:00:43.57    \nframe=   22 fps=0.5 q=42.0 size=       1KiB time=00:00:00.42 bitrate=  10.7kbits/s speed=0.00953x elapsed=0:00:44.07    \nframe=   23 fps=0.5 q=45.0 size=       1KiB time=00:00:00.44 bitrate=  10.2kbits/s speed=0.00986x elapsed=0:00:44.60    \nframe=   23 fps=0.5 q=45.0 size=       1KiB time=00:00:00.44 bitrate=  10.2kbits/s speed=0.00975x elapsed=0:00:45.10    \nframe=   24 fps=0.5 q=37.0 size=       1KiB time=00:00:00.46 bitrate=   9.8kbits/s speed=0.0101x elapsed=0:00:45.62    \nframe=   24 fps=0.5 q=37.0 size=       1KiB time=00:00:00.46 bitrate=   9.8kbits/s speed=0.00997x elapsed=0:00:46.14    \nframe=   24 fps=0.5 q=37.0 size=       1KiB time=00:00:00.46 bitrate=   9.8kbits/s speed=0.00986x elapsed=0:00:46.66    \nframe=   25 fps=0.5 q=43.0 size=       1KiB time=00:00:00.48 bitrate=   9.4kbits/s speed=0.0102x elapsed=0:00:47.17    \nframe=   26 fps=0.5 q=42.0 size=       1KiB time=00:00:00.50 bitrate=   9.0kbits/s speed=0.0105x elapsed=0:00:47.69    \nframe=   26 fps=0.5 q=42.0 size=       1KiB time=00:00:00.50 bitrate=   9.0kbits/s speed=0.0104x elapsed=0:00:48.20    \nframe=   27 fps=0.6 q=46.0 size=       1KiB time=00:00:00.52 bitrate=   8.6kbits/s speed=0.0107x elapsed=0:00:48.72    \nframe=   27 fps=0.5 q=46.0 size=       1KiB time=00:00:00.52 bitrate=   8.6kbits/s speed=0.0106x elapsed=0:00:49.23    \nframe=   28 fps=0.6 q=42.0 size=       1KiB time=00:00:00.54 bitrate=   8.3kbits/s speed=0.0109x elapsed=0:00:49.74    \nframe=   29 fps=0.6 q=44.0 size=       1KiB time=00:00:00.56 bitrate=   8.0kbits/s speed=0.0111x elapsed=0:00:50.26    \nframe=   30 fps=0.6 q=41.0 size=       1KiB time=00:00:00.58 bitrate=   7.8kbits/s speed=0.0114x elapsed=0:00:50.77    \nframe=   31 fps=0.6 q=45.0 size=       1KiB time=00:00:00.60 bitrate=   7.5kbits/s speed=0.0117x elapsed=0:00:51.29    \nframe=   32 fps=0.6 q=43.0 size=       1KiB time=00:00:00.62 bitrate=   7.3kbits/s speed=0.012x elapsed=0:00:51.81    \nframe=   32 fps=0.6 q=43.0 size=       1KiB time=00:00:00.62 bitrate=   7.3kbits/s speed=0.0118x elapsed=0:00:52.33    \nframe=   33 fps=0.6 q=32.0 size=       1KiB time=00:00:00.64 bitrate=   7.0kbits/s speed=0.0121x elapsed=0:00:52.84    \nframe=   34 fps=0.6 q=42.0 size=       1KiB time=00:00:00.66 bitrate=   6.8kbits/s speed=0.0124x elapsed=0:00:53.37    \nframe=   36 fps=0.7 q=39.0 size=       1KiB time=00:00:00.70 bitrate=   6.4kbits/s speed=0.013x elapsed=0:00:53.88    \nframe=   36 fps=0.7 q=39.0 size=       1KiB time=00:00:00.70 bitrate=   6.4kbits/s speed=0.0129x elapsed=0:00:54.39    \nframe=   37 fps=0.7 q=45.0 size=       1KiB time=00:00:00.72 bitrate=   6.2kbits/s speed=0.0131x elapsed=0:00:54.90    \nframe=   37 fps=0.7 q=45.0 size=       1KiB time=00:00:00.72 bitrate=   6.2kbits/s speed=0.013x elapsed=0:00:55.42    \nframe=   38 fps=0.7 q=39.0 size=       1KiB time=00:00:00.74 bitrate=   6.1kbits/s speed=0.0132x elapsed=0:00:55.94    \nframe=   38 fps=0.7 q=39.0 size=       1KiB time=00:00:00.74 bitrate=   6.1kbits/s speed=0.0131x elapsed=0:00:56.45    \nframe=   39 fps=0.7 q=44.0 size=       1KiB time=00:00:00.76 bitrate=   5.9kbits/s speed=0.0133x elapsed=0:00:56.96    \nframe=   39 fps=0.7 q=44.0 size=       1KiB time=00:00:00.76 bitrate=   5.9kbits/s speed=0.0132x elapsed=0:00:57.49    \nframe=   39 fps=0.7 q=44.0 size=       1KiB time=00:00:00.76 bitrate=   5.9kbits/s speed=0.0131x elapsed=0:00:58.01    \nframe=   40 fps=0.7 q=40.0 size=       1KiB time=00:00:00.78 bitrate=   5.8kbits/s speed=0.0133x elapsed=0:00:58.52    \nframe=   42 fps=0.7 q=40.0 size=       1KiB time=00:00:00.82 bitrate=   5.5kbits/s speed=0.0139x elapsed=0:00:59.04    \nframe=   43 fps=0.7 q=44.0 size=       1KiB time=00:00:00.84 bitrate=   5.4kbits/s speed=0.0141x elapsed=0:00:59.55    \nframe=   43 fps=0.7 q=44.0 size=       1KiB time=00:00:00.84 bitrate=   5.4kbits/s speed=0.014x elapsed=0:01:00.06    \nframe=   44 fps=0.7 q=39.0 size=       1KiB time=00:00:00.86 bitrate=   5.2kbits/s speed=0.0142x elapsed=0:01:00.58    \nframe=   45 fps=0.7 q=43.0 size=       1KiB time=00:00:00.88 bitrate=   5.1kbits/s speed=0.0144x elapsed=0:01:01.10    \nframe=   46 fps=0.7 q=39.0 size=       1KiB time=00:00:00.90 bitrate=   5.0kbits/s speed=0.0146x elapsed=0:01:01.60    \nframe=   47 fps=0.8 q=44.0 size=       1KiB time=00:00:00.92 bitrate=   4.9kbits/s speed=0.0148x elapsed=0:01:02.13    \nframe=   47 fps=0.8 q=44.0 size=       1KiB time=00:00:00.92 bitrate=   4.9kbits/s speed=0.0147x elapsed=0:01:02.64    \nframe=   48 fps=0.8 q=42.0 size=       1KiB time=00:00:00.94 bitrate=   4.8kbits/s speed=0.0149x elapsed=0:01:03.16    \nframe=   50 fps=0.8 q=42.0 size=       1KiB time=00:00:00.98 bitrate=   4.6kbits/s speed=0.0154x elapsed=0:01:03.67    \nframe=   50 fps=0.8 q=42.0 size=       1KiB time=00:00:00.98 bitrate=   4.6kbits/s speed=0.0153x elapsed=0:01:04.19    \nframe=   51 fps=0.8 q=45.0 size=       1KiB time=00:00:01.00 bitrate=   4.5kbits/s speed=0.0155x elapsed=0:01:04.71    \nframe=   51 fps=0.8 q=45.0 size=       1KiB time=00:00:01.00 bitrate=   4.5kbits/s speed=0.0153x elapsed=0:01:05.21    \nframe=   52 fps=0.8 q=41.0 size=       1KiB time=00:00:01.02 bitrate=   4.4kbits/s speed=0.0155x elapsed=0:01:05.73    \nframe=   52 fps=0.8 q=41.0 size=       1KiB time=00:00:01.02 bitrate=   4.4kbits/s speed=0.0154x elapsed=0:01:06.25    \nframe=   53 fps=0.8 q=45.0 size=       1KiB time=00:00:01.04 bitrate=   4.3kbits/s speed=0.0156x elapsed=0:01:06.77    \nframe=   54 fps=0.8 q=40.0 size=       1KiB time=00:00:01.06 bitrate=   4.2kbits/s speed=0.0158x elapsed=0:01:07.28    \nframe=   54 fps=0.8 q=40.0 size=       1KiB time=00:00:01.06 bitrate=   4.2kbits/s speed=0.0156x elapsed=0:01:07.79    \nframe=   54 fps=0.8 q=40.0 size=       1KiB time=00:00:01.06 bitrate=   4.2kbits/s speed=0.0155x elapsed=0:01:08.31    \nframe=   55 fps=0.8 q=44.0 size=       1KiB time=00:00:01.08 bitrate=   4.2kbits/s speed=0.0157x elapsed=0:01:08.82    \nframe=   55 fps=0.8 q=44.0 size=       1KiB time=00:00:01.08 bitrate=   4.2kbits/s speed=0.0156x elapsed=0:01:09.34    \nframe=   56 fps=0.8 q=41.0 size=       1KiB time=00:00:01.10 bitrate=   4.1kbits/s speed=0.0157x elapsed=0:01:09.85    \nframe=   56 fps=0.8 q=41.0 size=       1KiB time=00:00:01.10 bitrate=   4.1kbits/s speed=0.0156x elapsed=0:01:10.37    \nframe=   57 fps=0.8 q=42.0 size=       1KiB time=00:00:01.12 bitrate=   4.0kbits/s speed=0.0158x elapsed=0:01:10.88    \nframe=   59 fps=0.8 q=45.0 size=       1KiB time=00:00:01.16 bitrate=   3.9kbits/s speed=0.0162x elapsed=0:01:11.41    \nframe=   59 fps=0.8 q=45.0 size=       1KiB time=00:00:01.16 bitrate=   3.9kbits/s speed=0.0161x elapsed=0:01:11.92    \nframe=   60 fps=0.8 q=42.0 size=       1KiB time=00:00:01.18 bitrate=   3.8kbits/s speed=0.0163x elapsed=0:01:12.43    \nframe=   61 fps=0.8 q=43.0 size=       1KiB time=00:00:01.20 bitrate=   3.7kbits/s speed=0.0164x elapsed=0:01:12.96    \nframe=   61 fps=0.8 q=43.0 size=       1KiB time=00:00:01.20 bitrate=   3.7kbits/s speed=0.0163x elapsed=0:01:13.47    \nframe=   63 fps=0.9 q=45.0 size=       1KiB time=00:00:01.24 bitrate=   3.6kbits/s speed=0.0168x elapsed=0:01:13.98    \nframe=   63 fps=0.8 q=45.0 size=       1KiB time=00:00:01.24 bitrate=   3.6kbits/s speed=0.0166x elapsed=0:01:14.51    \nframe=   64 fps=0.9 q=42.0 size=       1KiB time=00:00:01.26 bitrate=   3.6kbits/s speed=0.0168x elapsed=0:01:15.03    \nframe=   65 fps=0.9 q=25.0 size=       1KiB time=00:00:01.28 bitrate=   3.5kbits/s speed=0.0169x elapsed=0:01:15.55    \nframe=   67 fps=0.9 q=43.0 size=       1KiB time=00:00:01.32 bitrate=   3.4kbits/s speed=0.0174x elapsed=0:01:16.07    \nframe=   67 fps=0.9 q=43.0 size=       1KiB time=00:00:01.32 bitrate=   3.4kbits/s speed=0.0172x elapsed=0:01:16.57    \nframe=   68 fps=0.9 q=40.0 size=       1KiB time=00:00:01.34 bitrate=   3.4kbits/s speed=0.0174x elapsed=0:01:17.09    \nframe=   69 fps=0.9 q=44.0 size=       1KiB time=00:00:01.36 bitrate=   3.3kbits/s speed=0.0175x elapsed=0:01:17.61    \nframe=   69 fps=0.9 q=44.0 size=       1KiB time=00:00:01.36 bitrate=   3.3kbits/s speed=0.0174x elapsed=0:01:18.12    \nframe=   70 fps=0.9 q=41.0 size=       1KiB time=00:00:01.38 bitrate=   3.3kbits/s speed=0.0175x elapsed=0:01:18.63    \nframe=   70 fps=0.9 q=41.0 size=       1KiB time=00:00:01.38 bitrate=   3.3kbits/s speed=0.0174x elapsed=0:01:19.16    \nframe=   71 fps=0.9 q=44.0 size=       1KiB time=00:00:01.40 bitrate=   3.2kbits/s speed=0.0176x elapsed=0:01:19.67    \nframe=   71 fps=0.9 q=44.0 size=       1KiB time=00:00:01.40 bitrate=   3.2kbits/s speed=0.0175x elapsed=0:01:20.18    \nframe=   72 fps=0.9 q=41.0 size=       1KiB time=00:00:01.42 bitrate=   3.2kbits/s speed=0.0176x elapsed=0:01:20.73    \nframe=   73 fps=0.9 q=41.0 size=       1KiB time=00:00:01.44 bitrate=   3.1kbits/s speed=0.0177x elapsed=0:01:21.32    \nframe=   75 fps=0.9 q=45.0 size=       1KiB time=00:00:01.48 bitrate=   3.0kbits/s speed=0.0181x elapsed=0:01:21.91    \nframe=   75 fps=0.9 q=45.0 size=       1KiB time=00:00:01.48 bitrate=   3.0kbits/s speed=0.0179x elapsed=0:01:22.48    \nframe=   76 fps=0.9 q=42.0 size=       1KiB time=00:00:01.50 bitrate=   3.0kbits/s speed=0.0181x elapsed=0:01:23.04    \nframe=   76 fps=0.9 q=42.0 size=       1KiB time=00:00:01.50 bitrate=   3.0kbits/s speed=0.0179x elapsed=0:01:23.62    \nframe=   78 fps=0.9 q=42.0 size=       1KiB time=00:00:01.54 bitrate=   2.9kbits/s speed=0.0183x elapsed=0:01:24.13    \nframe=   79 fps=0.9 q=45.0 size=       1KiB time=00:00:01.56 bitrate=   2.9kbits/s speed=0.0184x elapsed=0:01:24.70    \nframe=   80 fps=0.9 q=42.0 size=       1KiB time=00:00:01.58 bitrate=   2.8kbits/s speed=0.0185x elapsed=0:01:25.26    \nframe=   81 fps=0.9 q=26.0 size=       1KiB time=00:00:01.60 bitrate=   2.8kbits/s speed=0.0186x elapsed=0:01:25.84    \nframe=   82 fps=0.9 q=42.0 size=       1KiB time=00:00:01.62 bitrate=   2.8kbits/s speed=0.0188x elapsed=0:01:26.36    \nframe=   82 fps=0.9 q=42.0 size=       1KiB time=00:00:01.62 bitrate=   2.8kbits/s speed=0.0186x elapsed=0:01:26.91    \nframe=   83 fps=0.9 q=45.0 size=       1KiB time=00:00:01.64 bitrate=   2.7kbits/s speed=0.0188x elapsed=0:01:27.44    \nframe=   84 fps=1.0 q=42.0 size=       1KiB time=00:00:01.66 bitrate=   2.7kbits/s speed=0.0189x elapsed=0:01:27.96    \nframe=   85 fps=1.0 q=45.0 size=       1KiB time=00:00:01.68 bitrate=   2.7kbits/s speed=0.019x elapsed=0:01:28.53    \nframe=   86 fps=1.0 q=41.0 size=       1KiB time=00:00:01.68 bitrate=   2.7kbits/s speed=0.0189x elapsed=0:01:29.06    \nframe=   86 fps=1.0 q=41.0 size=       1KiB time=00:00:01.70 bitrate=   2.6kbits/s speed=0.019x elapsed=0:01:29.63    \nframe=   86 fps=1.0 q=41.0 size=       1KiB time=00:00:01.70 bitrate=   2.6kbits/s speed=0.0189x elapsed=0:01:30.17    \nframe=   87 fps=1.0 q=44.0 size=       1KiB time=00:00:01.72 bitrate=   2.6kbits/s speed=0.0189x elapsed=0:01:30.78    \nframe=   87 fps=1.0 q=44.0 size=       1KiB time=00:00:01.72 bitrate=   2.6kbits/s speed=0.0188x elapsed=0:01:31.29    \nframe=   88 fps=1.0 q=37.0 size=       1KiB time=00:00:01.74 bitrate=   2.6kbits/s speed=0.019x elapsed=0:01:31.81    \nframe=   89 fps=1.0 q=41.0 size=       1KiB time=00:00:01.76 bitrate=   2.6kbits/s speed=0.0191x elapsed=0:01:32.34    \nframe=   91 fps=1.0 q=44.0 size=       1KiB time=00:00:01.80 bitrate=   2.5kbits/s speed=0.0194x elapsed=0:01:32.91    \nframe=   91 fps=1.0 q=44.0 size=       1KiB time=00:00:01.80 bitrate=   2.5kbits/s speed=0.0193x elapsed=0:01:33.44    \nframe=   91 fps=1.0 q=44.0 size=       1KiB time=00:00:01.80 bitrate=   2.5kbits/s speed=0.0192x elapsed=0:01:33.98    \nframe=   92 fps=1.0 q=42.0 size=       1KiB time=00:00:01.82 bitrate=   2.5kbits/s speed=0.0193x elapsed=0:01:34.54    \nframe=   93 fps=1.0 q=43.0 size=       1KiB time=00:00:01.84 bitrate=   2.4kbits/s speed=0.0194x elapsed=0:01:35.08    \nframe=   95 fps=1.0 q=44.0 size=       1KiB time=00:00:01.88 bitrate=   2.4kbits/s speed=0.0196x elapsed=0:01:36.00    \nframe=   97 fps=1.0 q=27.0 size=       1KiB time=00:00:01.92 bitrate=   2.3kbits/s speed=0.0198x elapsed=0:01:36.82    \nframe=   99 fps=1.0 q=45.0 size=       1KiB time=00:00:01.94 bitrate=   2.3kbits/s speed=0.0199x elapsed=0:01:37.59    \nframe=  100 fps=1.0 q=43.0 size=       1KiB time=00:00:01.98 bitrate=   2.3kbits/s speed=0.0201x elapsed=0:01:38.37    \nframe=  102 fps=1.0 q=43.0 size=       1KiB time=00:00:02.00 bitrate=   2.2kbits/s speed=0.0202x elapsed=0:01:39.21    \nframe=  102 fps=1.0 q=43.0 size=       1KiB time=00:00:02.02 bitrate=   2.2kbits/s speed=0.0202x elapsed=0:01:40.00    \nframe=  102 fps=1.0 q=43.0 size=       1KiB time=00:00:02.02 bitrate=   2.2kbits/s speed=0.02x elapsed=0:01:40.86    \nframe=  103 fps=1.0 q=45.0 size=       1KiB time=00:00:02.04 bitrate=   2.2kbits/s speed=0.0201x elapsed=0:01:41.71    \nframe=  104 fps=1.0 q=43.0 size=       1KiB time=00:00:02.06 bitrate=   2.2kbits/s speed=0.0201x elapsed=0:01:42.66    \nframe=  106 fps=1.0 q=43.0 size=       1KiB time=00:00:02.10 bitrate=   2.1kbits/s speed=0.0203x elapsed=0:01:43.31    \nframe=  107 fps=1.0 q=45.0 size=       1KiB time=00:00:02.12 bitrate=   2.1kbits/s speed=0.0204x elapsed=0:01:43.91    \nframe=  107 fps=1.0 q=45.0 size=       1KiB time=00:00:02.12 bitrate=   2.1kbits/s speed=0.0203x elapsed=0:01:44.45    \nframe=  108 fps=1.0 q=43.0 size=       1KiB time=00:00:02.14 bitrate=   2.1kbits/s speed=0.0204x elapsed=0:01:45.06    \nframe=  109 fps=1.0 q=42.0 size=       1KiB time=00:00:02.16 bitrate=   2.1kbits/s speed=0.0204x elapsed=0:01:45.62    \nframe=  111 fps=1.0 q=45.0 size=       1KiB time=00:00:02.20 bitrate=   2.0kbits/s speed=0.0207x elapsed=0:01:46.15    \nframe=  111 fps=1.0 q=45.0 size=       1KiB time=00:00:02.20 bitrate=   2.0kbits/s speed=0.0206x elapsed=0:01:46.71    \nframe=  112 fps=1.0 q=43.0 size=       1KiB time=00:00:02.22 bitrate=   2.0kbits/s speed=0.0207x elapsed=0:01:47.30    \nframe=  113 fps=1.0 q=26.0 size=       1KiB time=00:00:02.24 bitrate=   2.0kbits/s speed=0.0208x elapsed=0:01:47.90    \nframe=  114 fps=1.1 q=43.0 size=       1KiB time=00:00:02.26 bitrate=   2.0kbits/s speed=0.0208x elapsed=0:01:48.51    \nframe=  116 fps=1.1 q=43.0 size=       1KiB time=00:00:02.30 bitrate=   2.0kbits/s speed=0.0211x elapsed=0:01:49.09    \nframe=  117 fps=1.1 q=44.0 size=       1KiB time=00:00:02.32 bitrate=   1.9kbits/s speed=0.0212x elapsed=0:01:49.62    \nframe=  117 fps=1.1 q=44.0 size=       1KiB time=00:00:02.32 bitrate=   1.9kbits/s speed=0.0211x elapsed=0:01:50.15    \nframe=  118 fps=1.1 q=42.0 size=       1KiB time=00:00:02.34 bitrate=   1.9kbits/s speed=0.0211x elapsed=0:01:50.73    \nframe=  118 fps=1.1 q=42.0 size=       1KiB time=00:00:02.34 bitrate=   1.9kbits/s speed=0.021x elapsed=0:01:51.29    \nframe=  119 fps=1.1 q=44.0 size=       1KiB time=00:00:02.36 bitrate=   1.9kbits/s speed=0.0211x elapsed=0:01:51.83    \nframe=  119 fps=1.1 q=44.0 size=       1KiB time=00:00:02.36 bitrate=   1.9kbits/s speed=0.021x elapsed=0:01:52.36    \nframe=  120 fps=1.1 q=42.0 size=       1KiB time=00:00:02.38 bitrate=   1.9kbits/s speed=0.0211x elapsed=0:01:52.88    \nframe=  122 fps=1.1 q=42.0 size=       1KiB time=00:00:02.42 bitrate=   1.9kbits/s speed=0.0213x elapsed=0:01:53.41    \nframe=  123 fps=1.1 q=43.0 size=       1KiB time=00:00:02.44 bitrate=   1.8kbits/s speed=0.0214x elapsed=0:01:53.93    \nframe=  123 fps=1.1 q=43.0 size=       1KiB time=00:00:02.44 bitrate=   1.8kbits/s speed=0.0213x elapsed=0:01:54.45    \nframe=  124 fps=1.1 q=42.0 size=       1KiB time=00:00:02.46 bitrate=   1.8kbits/s speed=0.0214x elapsed=0:01:54.97    \nframe=  125 fps=1.1 q=42.0 size=       1KiB time=00:00:02.48 bitrate=   1.8kbits/s speed=0.0215x elapsed=0:01:55.52    \nframe=  127 fps=1.1 q=43.0 size=       1KiB time=00:00:02.52 bitrate=   1.8kbits/s speed=0.0217x elapsed=0:01:56.04    \nframe=  128 fps=1.1 q=42.0 size=       1KiB time=00:00:02.54 bitrate=   1.8kbits/s speed=0.0218x elapsed=0:01:56.61    \nframe=  129 fps=1.1 q=27.0 size=       1KiB time=00:00:02.56 bitrate=   1.8kbits/s speed=0.0218x elapsed=0:01:57.17    \nframe=  130 fps=1.1 q=42.0 size=       1KiB time=00:00:02.58 bitrate=   1.7kbits/s speed=0.0219x elapsed=0:01:57.73    \nframe=  130 fps=1.1 q=42.0 size=       1KiB time=00:00:02.58 bitrate=   1.7kbits/s speed=0.0218x elapsed=0:01:58.28    \nframe=  131 fps=1.1 q=43.0 size=       1KiB time=00:00:02.60 bitrate=   1.7kbits/s speed=0.0219x elapsed=0:01:58.85    \nframe=  131 fps=1.1 q=43.0 size=       1KiB time=00:00:02.60 bitrate=   1.7kbits/s speed=0.0218x elapsed=0:01:59.39    \nframe=  133 fps=1.1 q=43.0 size=       1KiB time=00:00:02.62 bitrate=   1.7kbits/s speed=0.0219x elapsed=0:01:59.90    \nframe=  133 fps=1.1 q=43.0 size=       1KiB time=00:00:02.64 bitrate=   1.7kbits/s speed=0.0219x elapsed=0:02:00.48    \nframe=  134 fps=1.1 q=42.0 size=       1KiB time=00:00:02.66 bitrate=   1.7kbits/s speed=0.022x elapsed=0:02:01.02    \nframe=  134 fps=1.1 q=42.0 size=       1KiB time=00:00:02.66 bitrate=   1.7kbits/s speed=0.0219x elapsed=0:02:01.58    \nframe=  134 fps=1.1 q=42.0 size=       1KiB time=00:00:02.66 bitrate=   1.7kbits/s speed=0.0218x elapsed=0:02:02.16    \nframe=  135 fps=1.1 q=43.0 size=       1KiB time=00:00:02.68 bitrate=   1.7kbits/s speed=0.0218x elapsed=0:02:02.72    \nframe=  135 fps=1.1 q=43.0 size=       1KiB time=00:00:02.68 bitrate=   1.7kbits/s speed=0.0217x elapsed=0:02:03.31    \nframe=  136 fps=1.1 q=42.0 size=       1KiB time=00:00:02.70 bitrate=   1.7kbits/s speed=0.0218x elapsed=0:02:03.97    \nframe=  138 fps=1.1 q=44.0 size=       1KiB time=00:00:02.74 bitrate=   1.6kbits/s speed=0.022x elapsed=0:02:04.59    \nframe=  139 fps=1.1 q=45.0 size=       1KiB time=00:00:02.76 bitrate=   1.6kbits/s speed=0.022x elapsed=0:02:05.17    \nframe=  140 fps=1.1 q=44.0 size=       1KiB time=00:00:02.78 bitrate=   1.6kbits/s speed=0.0221x elapsed=0:02:05.78    \nframe=  141 fps=1.1 q=42.0 size=       1KiB time=00:00:02.80 bitrate=   1.6kbits/s speed=0.0222x elapsed=0:02:06.39    \nframe=  143 fps=1.1 q=45.0 size=       1KiB time=00:00:02.84 bitrate=   1.6kbits/s speed=0.0224x elapsed=0:02:06.97    \nframe=  143 fps=1.1 q=45.0 size=       1KiB time=00:00:02.84 bitrate=   1.6kbits/s speed=0.0223x elapsed=0:02:07.51    \nframe=  144 fps=1.1 q=44.0 size=       1KiB time=00:00:02.86 bitrate=   1.6kbits/s speed=0.0223x elapsed=0:02:08.07    \nframe=  146 fps=1.1 q=44.0 size=       1KiB time=00:00:02.90 bitrate=   1.6kbits/s speed=0.0225x elapsed=0:02:08.65    \nframe=  147 fps=1.1 q=44.0 size=       1KiB time=00:00:02.92 bitrate=   1.5kbits/s speed=0.0226x elapsed=0:02:09.29    \nframe=  147 fps=1.1 q=44.0 size=       1KiB time=00:00:02.92 bitrate=   1.5kbits/s speed=0.0225x elapsed=0:02:09.79    \nframe=  147 fps=1.1 q=44.0 size=       1KiB time=00:00:02.92 bitrate=   1.5kbits/s speed=0.0224x elapsed=0:02:10.32    \nframe=  147 fps=1.1 q=44.0 size=       1KiB time=00:00:02.92 bitrate=   1.5kbits/s speed=0.0223x elapsed=0:02:10.83    \nframe=  148 fps=1.1 q=44.0 size=       1KiB time=00:00:02.94 bitrate=   1.5kbits/s speed=0.0224x elapsed=0:02:11.34    \nframe=  149 fps=1.1 q=44.0 size=       1KiB time=00:00:02.96 bitrate=   1.5kbits/s speed=0.0224x elapsed=0:02:11.86    \nframe=  149 fps=1.1 q=44.0 size=       1KiB time=00:00:02.96 bitrate=   1.5kbits/s speed=0.0224x elapsed=0:02:12.38    \nframe=  150 fps=1.1 q=44.0 size=       1KiB time=00:00:02.98 bitrate=   1.5kbits/s speed=0.0224x elapsed=0:02:12.88    \nframe=  150 fps=1.1 q=44.0 size=       1KiB time=00:00:02.98 bitrate=   1.5kbits/s speed=0.0223x elapsed=0:02:13.41    \nframe=  151 fps=1.1 q=44.0 size=       1KiB time=00:00:03.00 bitrate=   1.5kbits/s speed=0.0224x elapsed=0:02:13.91    \nframe=  151 fps=1.1 q=44.0 size=       1KiB time=00:00:03.00 bitrate=   1.5kbits/s speed=0.0223x elapsed=0:02:14.44    \nframe=  152 fps=1.1 q=44.0 size=       1KiB time=00:00:03.02 bitrate=   1.5kbits/s speed=0.0224x elapsed=0:02:14.95    \nframe=  154 fps=1.1 q=44.0 size=       1KiB time=00:00:03.06 bitrate=   1.5kbits/s speed=0.0226x elapsed=0:02:15.47    \nframe=  155 fps=1.1 q=44.0 size=       1KiB time=00:00:03.08 bitrate=   1.5kbits/s speed=0.0226x elapsed=0:02:15.98    \nframe=  155 fps=1.1 q=44.0 size=       1KiB time=00:00:03.08 bitrate=   1.5kbits/s speed=0.0226x elapsed=0:02:16.51    \nframe=  156 fps=1.1 q=41.0 size=       1KiB time=00:00:03.10 bitrate=   1.5kbits/s speed=0.0226x elapsed=0:02:17.01    \nframe=  157 fps=1.1 q=43.0 size=       1KiB time=00:00:03.12 bitrate=   1.4kbits/s speed=0.0227x elapsed=0:02:17.52    \nframe=  159 fps=1.2 q=44.0 size=       1KiB time=00:00:03.16 bitrate=   1.4kbits/s speed=0.0229x elapsed=0:02:18.04    \nframe=  159 fps=1.1 q=44.0 size=       1KiB time=00:00:03.16 bitrate=   1.4kbits/s speed=0.0228x elapsed=0:02:18.56    \nframe=  161 fps=1.2 q=26.0 size=       1KiB time=00:00:03.20 bitrate=   1.4kbits/s speed=0.023x elapsed=0:02:19.08    \nframe=  163 fps=1.2 q=45.0 size=       1KiB time=00:00:03.24 bitrate=   1.4kbits/s speed=0.0232x elapsed=0:02:19.60    \nframe=  163 fps=1.2 q=45.0 size=       1KiB time=00:00:03.24 bitrate=   1.4kbits/s speed=0.0231x elapsed=0:02:20.10    \nframe=  163 fps=1.2 q=45.0 size=       1KiB time=00:00:03.24 bitrate=   1.4kbits/s speed=0.023x elapsed=0:02:20.62    \nframe=  164 fps=1.2 q=44.0 size=       1KiB time=00:00:03.26 bitrate=   1.4kbits/s speed=0.0231x elapsed=0:02:21.14    \nframe=  166 fps=1.2 q=44.0 size=       1KiB time=00:00:03.30 bitrate=   1.4kbits/s speed=0.0233x elapsed=0:02:21.65    \nframe=  166 fps=1.2 q=44.0 size=       1KiB time=00:00:03.30 bitrate=   1.4kbits/s speed=0.0232x elapsed=0:02:22.17    \nframe=  166 fps=1.2 q=44.0 size=       1KiB time=00:00:03.30 bitrate=   1.4kbits/s speed=0.0231x elapsed=0:02:22.68    \nframe=  167 fps=1.2 q=44.0 size=       1KiB time=00:00:03.32 bitrate=   1.4kbits/s speed=0.0232x elapsed=0:02:23.20    \nframe=  168 fps=1.2 q=44.0 size=       1KiB time=00:00:03.34 bitrate=   1.3kbits/s speed=0.0232x elapsed=0:02:23.71    \nframe=  170 fps=1.2 q=44.0 size=       1KiB time=00:00:03.38 bitrate=   1.3kbits/s speed=0.0234x elapsed=0:02:24.23    \nframe=  170 fps=1.2 q=44.0 size=       1KiB time=00:00:03.38 bitrate=   1.3kbits/s speed=0.0233x elapsed=0:02:24.75    \nframe=  172 fps=1.2 q=44.0 size=       1KiB time=00:00:03.42 bitrate=   1.3kbits/s speed=0.0235x elapsed=0:02:25.27    \nframe=  174 fps=1.2 q=43.0 size=       1KiB time=00:00:03.46 bitrate=   1.3kbits/s speed=0.0237x elapsed=0:02:25.77    \nframe=  174 fps=1.2 q=43.0 size=       1KiB time=00:00:03.46 bitrate=   1.3kbits/s speed=0.0236x elapsed=0:02:26.30    \nframe=  175 fps=1.2 q=43.0 size=       1KiB time=00:00:03.48 bitrate=   1.3kbits/s speed=0.0237x elapsed=0:02:26.81    \nframe=  175 fps=1.2 q=43.0 size=       1KiB time=00:00:03.48 bitrate=   1.3kbits/s speed=0.0236x elapsed=0:02:27.32    \nframe=  176 fps=1.2 q=43.0 size=       1KiB time=00:00:03.50 bitrate=   1.3kbits/s speed=0.0237x elapsed=0:02:27.84    \nframe=  177 fps=1.2 q=27.0 size=       1KiB time=00:00:03.52 bitrate=   1.3kbits/s speed=0.0237x elapsed=0:02:28.35    \nframe=  178 fps=1.2 q=44.0 size=       1KiB time=00:00:03.54 bitrate=   1.3kbits/s speed=0.0238x elapsed=0:02:28.87    \nframe=  180 fps=1.2 q=44.0 size=       1KiB time=00:00:03.58 bitrate=   1.3kbits/s speed=0.024x elapsed=0:02:29.39    \nframe=  181 fps=1.2 q=44.0 size=       1KiB time=00:00:03.60 bitrate=   1.2kbits/s speed=0.024x elapsed=0:02:29.90    \nframe=  182 fps=1.2 q=44.0 size=       1KiB time=00:00:03.62 bitrate=   1.2kbits/s speed=0.0241x elapsed=0:02:30.42    \nframe=  182 fps=1.2 q=44.0 size=       1KiB time=00:00:03.62 bitrate=   1.2kbits/s speed=0.024x elapsed=0:02:30.94    \nframe=  183 fps=1.2 q=44.0 size=       1KiB time=00:00:03.64 bitrate=   1.2kbits/s speed=0.024x elapsed=0:02:31.45    \nframe=  183 fps=1.2 q=44.0 size=       1KiB time=00:00:03.64 bitrate=   1.2kbits/s speed=0.024x elapsed=0:02:31.97    \nframe=  183 fps=1.2 q=44.0 size=       1KiB time=00:00:03.64 bitrate=   1.2kbits/s speed=0.0239x elapsed=0:02:32.48    \nframe=  185 fps=1.2 q=37.0 size=       1KiB time=00:00:03.68 bitrate=   1.2kbits/s speed=0.0241x elapsed=0:02:33.00    \nframe=  187 fps=1.2 q=43.0 size=       1KiB time=00:00:03.72 bitrate=   1.2kbits/s speed=0.0242x elapsed=0:02:33.51    \nframe=  187 fps=1.2 q=43.0 size=       1KiB time=00:00:03.72 bitrate=   1.2kbits/s speed=0.0242x elapsed=0:02:34.02    \nframe=  188 fps=1.2 q=43.0 size=       1KiB time=00:00:03.74 bitrate=   1.2kbits/s speed=0.0242x elapsed=0:02:34.55    \nframe=  188 fps=1.2 q=43.0 size=       1KiB time=00:00:03.74 bitrate=   1.2kbits/s speed=0.0241x elapsed=0:02:35.06    \nframe=  190 fps=1.2 q=44.0 size=       1KiB time=00:00:03.78 bitrate=   1.2kbits/s speed=0.0243x elapsed=0:02:35.57    \nframe=  191 fps=1.2 q=44.0 size=       1KiB time=00:00:03.80 bitrate=   1.2kbits/s speed=0.0243x elapsed=0:02:36.10    \nframe=  192 fps=1.2 q=44.0 size=       1KiB time=00:00:03.82 bitrate=   1.2kbits/s speed=0.0244x elapsed=0:02:36.66    \nframe=  195 fps=1.2 q=44.0 size=       1KiB time=00:00:03.88 bitrate=   1.2kbits/s speed=0.0247x elapsed=0:02:37.20    \nframe=  195 fps=1.2 q=44.0 size=       1KiB time=00:00:03.88 bitrate=   1.2kbits/s speed=0.0246x elapsed=0:02:37.72    \nframe=  197 fps=1.2 q=44.0 size=       1KiB time=00:00:03.92 bitrate=   1.1kbits/s speed=0.0248x elapsed=0:02:38.28    \nframe=  198 fps=1.2 q=43.0 size=       1KiB time=00:00:03.94 bitrate=   1.1kbits/s speed=0.0248x elapsed=0:02:38.81    \nframe=  198 fps=1.2 q=43.0 size=       1KiB time=00:00:03.94 bitrate=   1.1kbits/s speed=0.0247x elapsed=0:02:39.33    \nframe=  199 fps=1.2 q=43.0 size=       1KiB time=00:00:03.96 bitrate=   1.1kbits/s speed=0.0248x elapsed=0:02:39.85    \nframe=  199 fps=1.2 q=43.0 size=       1KiB time=00:00:03.96 bitrate=   1.1kbits/s speed=0.0247x elapsed=0:02:40.38    \nframe=  201 fps=1.2 q=37.0 size=       1KiB time=00:00:04.00 bitrate=   1.1kbits/s speed=0.0249x elapsed=0:02:40.92    \nframe=  203 fps=1.3 q=43.0 size=       1KiB time=00:00:04.04 bitrate=   1.1kbits/s speed=0.025x elapsed=0:02:41.43    \nframe=  203 fps=1.3 q=43.0 size=       1KiB time=00:00:04.04 bitrate=   1.1kbits/s speed=0.0249x elapsed=0:02:42.00    \nframe=  204 fps=1.3 q=43.0 size=       1KiB time=00:00:04.06 bitrate=   1.1kbits/s speed=0.025x elapsed=0:02:42.58    \nframe=  205 fps=1.3 q=43.0 size=       1KiB time=00:00:04.08 bitrate=   1.1kbits/s speed=0.025x elapsed=0:02:43.18    \nframe=  207 fps=1.3 q=43.0 size=       1KiB time=00:00:04.12 bitrate=   1.1kbits/s speed=0.0252x elapsed=0:02:43.77    \nframe=  207 fps=1.3 q=43.0 size=       1KiB time=00:00:04.12 bitrate=   1.1kbits/s speed=0.0251x elapsed=0:02:44.30    \nframe=  208 fps=1.3 q=43.0 size=       1KiB time=00:00:04.14 bitrate=   1.1kbits/s speed=0.0251x elapsed=0:02:44.81    \nframe=  209 fps=1.3 q=28.0 size=       1KiB time=00:00:04.16 bitrate=   1.1kbits/s speed=0.0252x elapsed=0:02:45.33    \nframe=  210 fps=1.3 q=44.0 size=       1KiB time=00:00:04.18 bitrate=   1.1kbits/s speed=0.0252x elapsed=0:02:45.84    \nframe=  211 fps=1.3 q=44.0 size=       1KiB time=00:00:04.20 bitrate=   1.1kbits/s speed=0.0252x elapsed=0:02:46.36    \nframe=  213 fps=1.3 q=44.0 size=       1KiB time=00:00:04.24 bitrate=   1.1kbits/s speed=0.0254x elapsed=0:02:46.87    \nframe=  214 fps=1.3 q=44.0 size=       1KiB time=00:00:04.26 bitrate=   1.1kbits/s speed=0.0254x elapsed=0:02:47.39    \nframe=  214 fps=1.3 q=44.0 size=       1KiB time=00:00:04.26 bitrate=   1.1kbits/s speed=0.0254x elapsed=0:02:47.90    \nframe=  215 fps=1.3 q=44.0 size=       1KiB time=00:00:04.28 bitrate=   1.1kbits/s speed=0.0254x elapsed=0:02:48.42    \nframe=  215 fps=1.3 q=44.0 size=       1KiB time=00:00:04.28 bitrate=   1.1kbits/s speed=0.0253x elapsed=0:02:48.93    \nframe=  216 fps=1.3 q=38.0 size=       1KiB time=00:00:04.30 bitrate=   1.0kbits/s speed=0.0254x elapsed=0:02:49.45    \nframe=  218 fps=1.3 q=45.0 size=       1KiB time=00:00:04.34 bitrate=   1.0kbits/s speed=0.0255x elapsed=0:02:49.97    \nframe=  218 fps=1.3 q=45.0 size=       1KiB time=00:00:04.34 bitrate=   1.0kbits/s speed=0.0255x elapsed=0:02:50.49    \nframe=  219 fps=1.3 q=45.0 size=       1KiB time=00:00:04.36 bitrate=   1.0kbits/s speed=0.0255x elapsed=0:02:51.01    \nframe=  219 fps=1.3 q=45.0 size=       1KiB time=00:00:04.36 bitrate=   1.0kbits/s speed=0.0254x elapsed=0:02:51.52    \nframe=  221 fps=1.3 q=43.0 size=       1KiB time=00:00:04.40 bitrate=   1.0kbits/s speed=0.0256x elapsed=0:02:52.05    \nframe=  222 fps=1.3 q=46.0 size=       1KiB time=00:00:04.42 bitrate=   1.0kbits/s speed=0.0256x elapsed=0:02:52.57    \nframe=  224 fps=1.3 q=46.0 size=       1KiB time=00:00:04.46 bitrate=   1.0kbits/s speed=0.0258x elapsed=0:02:53.08    \nframe=  225 fps=1.3 q=28.0 size=       1KiB time=00:00:04.48 bitrate=   1.0kbits/s speed=0.0258x elapsed=0:02:53.59    \nframe=  226 fps=1.3 q=46.0 size=       1KiB time=00:00:04.50 bitrate=   1.0kbits/s speed=0.0258x elapsed=0:02:54.11    \nframe=  228 fps=1.3 q=46.0 size=       1KiB time=00:00:04.54 bitrate=   1.0kbits/s speed=0.026x elapsed=0:02:54.63    \nframe=  229 fps=1.3 q=45.0 size=       1KiB time=00:00:04.56 bitrate=   1.0kbits/s speed=0.026x elapsed=0:02:55.13    \nframe=  230 fps=1.3 q=46.0 size=       1KiB time=00:00:04.58 bitrate=   1.0kbits/s speed=0.0261x elapsed=0:02:55.66    \nframe=  230 fps=1.3 q=46.0 size=       1KiB time=00:00:04.58 bitrate=   1.0kbits/s speed=0.026x elapsed=0:02:56.17    \nframe=  231 fps=1.3 q=46.0 size=       1KiB time=00:00:04.60 bitrate=   1.0kbits/s speed=0.026x elapsed=0:02:56.68    \nframe=  231 fps=1.3 q=46.0 size=       1KiB time=00:00:04.60 bitrate=   1.0kbits/s speed=0.026x elapsed=0:02:57.20    \nframe=  232 fps=1.3 q=46.0 size=       1KiB time=00:00:04.62 bitrate=   1.0kbits/s speed=0.026x elapsed=0:02:57.72    \nframe=  233 fps=1.3 q=41.0 size=       1KiB time=00:00:04.64 bitrate=   1.0kbits/s speed=0.026x elapsed=0:02:58.23    \nframe=  235 fps=1.3 q=45.0 size=       1KiB time=00:00:04.68 bitrate=   1.0kbits/s speed=0.0262x elapsed=0:02:58.76    \nframe=  235 fps=1.3 q=45.0 size=       1KiB time=00:00:04.68 bitrate=   1.0kbits/s speed=0.0261x elapsed=0:02:59.28    \nframe=  236 fps=1.3 q=46.0 size=       1KiB time=00:00:04.70 bitrate=   1.0kbits/s speed=0.0261x elapsed=0:02:59.79    \nframe=  237 fps=1.3 q=43.0 size=       1KiB time=00:00:04.72 bitrate=   1.0kbits/s speed=0.0262x elapsed=0:03:00.31    \nframe=  239 fps=1.3 q=43.0 size=       1KiB time=00:00:04.76 bitrate=   0.9kbits/s speed=0.0263x elapsed=0:03:00.83    \nframe=  239 fps=1.3 q=43.0 size=       1KiB time=00:00:04.76 bitrate=   0.9kbits/s speed=0.0262x elapsed=0:03:01.35    \nframe=  241 fps=1.3 q=29.0 size=       1KiB time=00:00:04.80 bitrate=   0.9kbits/s speed=0.0264x elapsed=0:03:01.85    \nframe=  242 fps=1.3 q=46.0 size=       1KiB time=00:00:04.82 bitrate=   0.9kbits/s speed=0.0264x elapsed=0:03:02.37    \nframe=  243 fps=1.3 q=46.0 size=       1KiB time=00:00:04.84 bitrate=   0.9kbits/s speed=0.0265x elapsed=0:03:02.88    \nframe=  245 fps=1.3 q=45.0 size=       1KiB time=00:00:04.88 bitrate=   0.9kbits/s speed=0.0266x elapsed=0:03:03.41    \nframe=  246 fps=1.3 q=46.0 size=       1KiB time=00:00:04.90 bitrate=   0.9kbits/s speed=0.0266x elapsed=0:03:03.98    \nframe=  246 fps=1.3 q=46.0 size=       1KiB time=00:00:04.90 bitrate=   0.9kbits/s speed=0.0266x elapsed=0:03:04.50    \nframe=  247 fps=1.3 q=46.0 size=       1KiB time=00:00:04.92 bitrate=   0.9kbits/s speed=0.0266x elapsed=0:03:05.09    \nframe=  247 fps=1.3 q=46.0 size=       1KiB time=00:00:04.92 bitrate=   0.9kbits/s speed=0.0265x elapsed=0:03:05.65    \nframe=  248 fps=1.3 q=46.0 size=       1KiB time=00:00:04.94 bitrate=   0.9kbits/s speed=0.0265x elapsed=0:03:06.22    \nframe=  250 fps=1.3 q=46.0 size=       1KiB time=00:00:04.98 bitrate=   0.9kbits/s speed=0.0267x elapsed=0:03:06.74    \nframe=  251 fps=1.3 q=45.0 size=       1KiB time=00:00:05.00 bitrate=   0.9kbits/s speed=0.0267x elapsed=0:03:07.35    \nframe=  252 fps=1.3 q=44.0 size=       1KiB time=00:00:05.02 bitrate=   0.9kbits/s speed=0.0267x elapsed=0:03:07.90    \nframe=  254 fps=1.3 q=46.0 size=    1536KiB time=00:00:05.06 bitrate=2486.7kbits/s speed=0.0269x elapsed=0:03:08.43    \nframe=  255 fps=1.3 q=45.0 size=    1536KiB time=00:00:05.08 bitrate=2477.0kbits/s speed=0.0269x elapsed=0:03:08.95    \nframe=  257 fps=1.4 q=30.0 size=    1536KiB time=00:00:05.12 bitrate=2457.6kbits/s speed=0.027x elapsed=0:03:09.54    \nframe=  258 fps=1.4 q=46.0 size=    1536KiB time=00:00:05.14 bitrate=2448.0kbits/s speed=0.027x elapsed=0:03:10.11    \nframe=  259 fps=1.4 q=46.0 size=    1536KiB time=00:00:05.16 bitrate=2438.5kbits/s speed=0.0271x elapsed=0:03:10.67    \nframe=  260 fps=1.4 q=46.0 size=    1536KiB time=00:00:05.18 bitrate=2429.1kbits/s speed=0.0271x elapsed=0:03:11.34    \nframe=  261 fps=1.4 q=45.0 size=    1536KiB time=00:00:05.20 bitrate=2419.8kbits/s speed=0.0271x elapsed=0:03:11.96    \nframe=  262 fps=1.4 q=47.0 size=    1536KiB time=00:00:05.22 bitrate=2410.5kbits/s speed=0.0271x elapsed=0:03:12.48    \nframe=  262 fps=1.4 q=47.0 size=    1536KiB time=00:00:05.22 bitrate=2410.5kbits/s speed=0.027x elapsed=0:03:12.99    \nframe=  263 fps=1.4 q=46.0 size=    1536KiB time=00:00:05.24 bitrate=2401.3kbits/s speed=0.0271x elapsed=0:03:13.52    \nframe=  263 fps=1.4 q=46.0 size=    1536KiB time=00:00:05.24 bitrate=2401.3kbits/s speed=0.027x elapsed=0:03:14.03    \nframe=  264 fps=1.4 q=47.0 size=    1536KiB time=00:00:05.26 bitrate=2392.2kbits/s speed=0.027x elapsed=0:03:14.54    \nframe=  265 fps=1.4 q=42.0 size=    1536KiB time=00:00:05.28 bitrate=2383.1kbits/s speed=0.0271x elapsed=0:03:15.05    \nframe=  267 fps=1.4 q=46.0 size=    1536KiB time=00:00:05.32 bitrate=2365.2kbits/s speed=0.0272x elapsed=0:03:15.57    \nframe=  267 fps=1.4 q=46.0 size=    1536KiB time=00:00:05.32 bitrate=2365.2kbits/s speed=0.0271x elapsed=0:03:16.08    \nframe=  269 fps=1.4 q=43.0 size=    1536KiB time=00:00:05.36 bitrate=2347.6kbits/s speed=0.0273x elapsed=0:03:16.61    \nframe=  270 fps=1.4 q=48.0 size=    1536KiB time=00:00:05.38 bitrate=2338.8kbits/s speed=0.0273x elapsed=0:03:17.12    \nframe=  271 fps=1.4 q=46.0 size=    1536KiB time=00:00:05.40 bitrate=2330.2kbits/s speed=0.0273x elapsed=0:03:17.64    \nframe=  273 fps=1.4 q=30.0 size=    1536KiB time=00:00:05.44 bitrate=2313.0kbits/s speed=0.0275x elapsed=0:03:18.15    \nframe=  274 fps=1.4 q=49.0 size=    1536KiB time=00:00:05.46 bitrate=2304.6kbits/s speed=0.0275x elapsed=0:03:18.67    \nframe=  276 fps=1.4 q=49.0 size=    1536KiB time=00:00:05.50 bitrate=2287.8kbits/s speed=0.0276x elapsed=0:03:19.19    \nframe=  278 fps=1.4 q=49.0 size=    1536KiB time=00:00:05.54 bitrate=2271.3kbits/s speed=0.0277x elapsed=0:03:19.71    \nframe=  278 fps=1.4 q=49.0 size=    1536KiB time=00:00:05.54 bitrate=2271.3kbits/s speed=0.0277x elapsed=0:03:20.22    \nframe=  278 fps=1.4 q=49.0 size=    1536KiB time=00:00:05.54 bitrate=2271.3kbits/s speed=0.0276x elapsed=0:03:20.73    \nframe=  279 fps=1.4 q=48.0 size=    1536KiB time=00:00:05.56 bitrate=2263.1kbits/s speed=0.0276x elapsed=0:03:21.24    \nframe=  282 fps=1.4 q=48.0 size=    1536KiB time=00:00:05.62 bitrate=2239.0kbits/s speed=0.0279x elapsed=0:03:21.77    \nframe=  283 fps=1.4 q=46.0 size=    1536KiB time=00:00:05.64 bitrate=2231.0kbits/s speed=0.0279x elapsed=0:03:22.29    \nframe=  285 fps=1.4 q=43.0 size=    1536KiB time=00:00:05.66 bitrate=2223.1kbits/s speed=0.0279x elapsed=0:03:22.80    \nframe=  286 fps=1.4 q=48.0 size=    1536KiB time=00:00:05.70 bitrate=2207.5kbits/s speed=0.028x elapsed=0:03:23.75    \nframe=  287 fps=1.4 q=46.0 size=    1536KiB time=00:00:05.72 bitrate=2199.8kbits/s speed=0.028x elapsed=0:03:24.27    \nframe=  288 fps=1.4 q=48.0 size=    1536KiB time=00:00:05.74 bitrate=2192.1kbits/s speed=0.028x elapsed=0:03:24.78    \nframe=  291 fps=1.4 q=48.0 size=    1536KiB time=00:00:05.80 bitrate=2169.5kbits/s speed=0.0283x elapsed=0:03:25.29    \nframe=  291 fps=1.4 q=48.0 size=    1536KiB time=00:00:05.80 bitrate=2169.5kbits/s speed=0.0282x elapsed=0:03:25.81    \nframe=  292 fps=1.4 q=49.0 size=    1536KiB time=00:00:05.82 bitrate=2162.0kbits/s speed=0.0282x elapsed=0:03:26.33    \nframe=  293 fps=1.4 q=46.0 size=    1536KiB time=00:00:05.84 bitrate=2154.6kbits/s speed=0.0282x elapsed=0:03:26.84    \nframe=  294 fps=1.4 q=47.0 size=    1536KiB time=00:00:05.86 bitrate=2147.3kbits/s speed=0.0283x elapsed=0:03:27.36    \nframe=  294 fps=1.4 q=47.0 size=    1536KiB time=00:00:05.86 bitrate=2147.3kbits/s speed=0.0282x elapsed=0:03:27.87    \nframe=  295 fps=1.4 q=44.0 size=    1536KiB time=00:00:05.88 bitrate=2140.0kbits/s speed=0.0282x elapsed=0:03:28.39    \nframe=  295 fps=1.4 q=44.0 size=    1536KiB time=00:00:05.88 bitrate=2140.0kbits/s speed=0.0281x elapsed=0:03:28.91    \nframe=  298 fps=1.4 q=49.0 size=    1536KiB time=00:00:05.94 bitrate=2118.3kbits/s speed=0.0284x elapsed=0:03:29.42    \nframe=  299 fps=1.4 q=48.0 size=    1536KiB time=00:00:05.96 bitrate=2111.2kbits/s speed=0.0284x elapsed=0:03:29.93    \nframe=  299 fps=1.4 q=48.0 size=    1536KiB time=00:00:05.96 bitrate=2111.2kbits/s speed=0.0283x elapsed=0:03:30.45    \nframe=  300 fps=1.4 q=47.0 size=    1536KiB time=00:00:05.98 bitrate=2104.2kbits/s speed=0.0283x elapsed=0:03:30.96    \nframe=  303 fps=1.4 q=47.0 size=    1536KiB time=00:00:06.04 bitrate=2083.3kbits/s speed=0.0286x elapsed=0:03:31.48    \nframe=  304 fps=1.4 q=49.0 size=    1536KiB time=00:00:06.06 bitrate=2076.4kbits/s speed=0.0286x elapsed=0:03:31.99    \nframe=  305 fps=1.4 q=30.0 size=    1536KiB time=00:00:06.08 bitrate=2069.6kbits/s speed=0.0286x elapsed=0:03:32.52    \nframe=  306 fps=1.4 q=50.0 size=    1536KiB time=00:00:06.10 bitrate=2062.8kbits/s speed=0.0286x elapsed=0:03:33.02    \nframe=  306 fps=1.4 q=50.0 size=    1536KiB time=00:00:06.10 bitrate=2062.8kbits/s speed=0.0286x elapsed=0:03:33.55    \nframe=  307 fps=1.4 q=49.0 size=    1536KiB time=00:00:06.12 bitrate=2056.0kbits/s speed=0.0286x elapsed=0:03:34.06    \nframe=  309 fps=1.4 q=47.0 size=    1536KiB time=00:00:06.16 bitrate=2042.7kbits/s speed=0.0287x elapsed=0:03:34.60    \nframe=  309 fps=1.4 q=47.0 size=    1536KiB time=00:00:06.16 bitrate=2042.7kbits/s speed=0.0286x elapsed=0:03:35.10    \nframe=  309 fps=1.4 q=47.0 size=    1536KiB time=00:00:06.16 bitrate=2042.7kbits/s speed=0.0286x elapsed=0:03:35.69    \nframe=  310 fps=1.4 q=50.0 size=    1536KiB time=00:00:06.18 bitrate=2036.1kbits/s speed=0.0286x elapsed=0:03:36.22    \nframe=  311 fps=1.4 q=49.0 size=    1536KiB time=00:00:06.20 bitrate=2029.5kbits/s speed=0.0286x elapsed=0:03:36.75    \nframe=  311 fps=1.4 q=49.0 size=    1536KiB time=00:00:06.20 bitrate=2029.5kbits/s speed=0.0285x elapsed=0:03:37.27    \nframe=  312 fps=1.4 q=50.0 size=    1536KiB time=00:00:06.22 bitrate=2023.0kbits/s speed=0.0286x elapsed=0:03:37.79    \nframe=  313 fps=1.4 q=44.0 size=    1536KiB time=00:00:06.24 bitrate=2016.5kbits/s speed=0.0286x elapsed=0:03:38.33    \nframe=  314 fps=1.4 q=50.0 size=    1536KiB time=00:00:06.26 bitrate=2010.0kbits/s speed=0.0286x elapsed=0:03:38.85    \nframe=  314 fps=1.4 q=50.0 size=    1536KiB time=00:00:06.26 bitrate=2010.0kbits/s speed=0.0285x elapsed=0:03:39.36    \nframe=  314 fps=1.4 q=50.0 size=    1536KiB time=00:00:06.26 bitrate=2010.0kbits/s speed=0.0285x elapsed=0:03:39.88    \nframe=  314 fps=1.4 q=50.0 size=    1536KiB time=00:00:06.26 bitrate=2010.0kbits/s speed=0.0284x elapsed=0:03:40.40    \nframe=  315 fps=1.4 q=49.0 size=    1536KiB time=00:00:06.28 bitrate=2003.6kbits/s speed=0.0284x elapsed=0:03:40.94    \nframe=  315 fps=1.4 q=49.0 size=    1536KiB time=00:00:06.28 bitrate=2003.6kbits/s speed=0.0284x elapsed=0:03:41.45    \nframe=  316 fps=1.4 q=50.0 size=    1536KiB time=00:00:06.30 bitrate=1997.3kbits/s speed=0.0284x elapsed=0:03:41.97    \nframe=  317 fps=1.4 q=47.0 size=    1536KiB time=00:00:06.32 bitrate=1991.0kbits/s speed=0.0284x elapsed=0:03:42.48    \nframe=  317 fps=1.4 q=47.0 size=    1536KiB time=00:00:06.32 bitrate=1991.0kbits/s speed=0.0283x elapsed=0:03:42.99    \nframe=  318 fps=1.4 q=44.0 size=    1536KiB time=00:00:06.34 bitrate=1984.7kbits/s speed=0.0284x elapsed=0:03:43.52    \nframe=  318 fps=1.4 q=44.0 size=    1536KiB time=00:00:06.34 bitrate=1984.7kbits/s speed=0.0283x elapsed=0:03:44.04    \nframe=  318 fps=1.4 q=44.0 size=    1536KiB time=00:00:06.34 bitrate=1984.7kbits/s speed=0.0282x elapsed=0:03:44.56    \nframe=  319 fps=1.4 q=38.0 size=    1536KiB time=00:00:06.36 bitrate=1978.4kbits/s speed=0.0283x elapsed=0:03:45.07    \nframe=  319 fps=1.4 q=38.0 size=    1536KiB time=00:00:06.36 bitrate=1978.4kbits/s speed=0.0282x elapsed=0:03:45.59    \nframe=  319 fps=1.4 q=38.0 size=    1536KiB time=00:00:06.36 bitrate=1978.4kbits/s speed=0.0281x elapsed=0:03:46.10    \nframe=  320 fps=1.4 q=44.0 size=    1536KiB time=00:00:06.38 bitrate=1972.2kbits/s speed=0.0282x elapsed=0:03:46.62    \nframe=  320 fps=1.4 q=44.0 size=    1536KiB time=00:00:06.38 bitrate=1972.2kbits/s speed=0.0281x elapsed=0:03:47.13    \nframe=  321 fps=1.4 q=38.0 size=    1536KiB time=00:00:06.40 bitrate=1966.1kbits/s speed=0.0281x elapsed=0:03:47.65    \nframe=  322 fps=1.4 q=21.0 size=    1536KiB time=00:00:06.42 bitrate=1960.0kbits/s speed=0.0281x elapsed=0:03:48.16    \nframe=  322 fps=1.4 q=21.0 size=    1536KiB time=00:00:06.42 bitrate=1960.0kbits/s speed=0.0281x elapsed=0:03:48.69    \nframe=  323 fps=1.4 q=49.0 size=    1792KiB time=00:00:06.44 bitrate=2279.5kbits/s speed=0.0281x elapsed=0:03:49.20    \nframe=  323 fps=1.4 q=49.0 size=    1792KiB time=00:00:06.44 bitrate=2279.5kbits/s speed=0.028x elapsed=0:03:49.71    \nframe=  323 fps=1.4 q=49.0 size=    1792KiB time=00:00:06.44 bitrate=2279.5kbits/s speed=0.028x elapsed=0:03:50.24    \nframe=  323 fps=1.4 q=49.0 size=    1792KiB time=00:00:06.44 bitrate=2279.5kbits/s speed=0.0279x elapsed=0:03:50.78    \nframe=  324 fps=1.4 q=48.0 size=    1792KiB time=00:00:06.46 bitrate=2272.5kbits/s speed=0.0279x elapsed=0:03:51.32    \nframe=  326 fps=1.4 q=46.0 size=    1792KiB time=00:00:06.50 bitrate=2258.5kbits/s speed=0.028x elapsed=0:03:51.84    \nframe=  326 fps=1.4 q=46.0 size=    1792KiB time=00:00:06.50 bitrate=2258.5kbits/s speed=0.028x elapsed=0:03:52.35    \nframe=  327 fps=1.4 q=49.0 size=    1792KiB time=00:00:06.52 bitrate=2251.5kbits/s speed=0.028x elapsed=0:03:52.87    \nframe=  327 fps=1.4 q=49.0 size=    1792KiB time=00:00:06.52 bitrate=2251.5kbits/s speed=0.0279x elapsed=0:03:53.42    \nframe=  327 fps=1.4 q=49.0 size=    1792KiB time=00:00:06.52 bitrate=2251.5kbits/s speed=0.0279x elapsed=0:03:53.93    \nframe=  327 fps=1.4 q=49.0 size=    1792KiB time=00:00:06.52 bitrate=2251.5kbits/s speed=0.0278x elapsed=0:03:54.45    \nframe=  328 fps=1.4 q=48.0 size=    1792KiB time=00:00:06.54 bitrate=2244.7kbits/s speed=0.0278x elapsed=0:03:54.96    \nframe=  328 fps=1.4 q=48.0 size=    1792KiB time=00:00:06.54 bitrate=2244.7kbits/s speed=0.0278x elapsed=0:03:55.49    \nframe=  328 fps=1.4 q=48.0 size=    1792KiB time=00:00:06.54 bitrate=2244.7kbits/s speed=0.0277x elapsed=0:03:56.03    \nframe=  329 fps=1.4 q=46.0 size=    1792KiB time=00:00:06.56 bitrate=2237.8kbits/s speed=0.0277x elapsed=0:03:56.55    \nframe=  330 fps=1.4 q=41.0 size=    1792KiB time=00:00:06.58 bitrate=2231.0kbits/s speed=0.0278x elapsed=0:03:57.07    \nframe=  332 fps=1.4 q=47.0 size=    1792KiB time=00:00:06.62 bitrate=2217.5kbits/s speed=0.0279x elapsed=0:03:57.59    \nframe=  332 fps=1.4 q=47.0 size=    1792KiB time=00:00:06.62 bitrate=2217.5kbits/s speed=0.0278x elapsed=0:03:58.13    \nframe=  333 fps=1.4 q=49.0 size=    1792KiB time=00:00:06.64 bitrate=2210.9kbits/s speed=0.0278x elapsed=0:03:58.63    \nframe=  334 fps=1.4 q=44.0 size=    1792KiB time=00:00:06.64 bitrate=2210.9kbits/s speed=0.0278x elapsed=0:03:59.16    \nframe=  335 fps=1.4 q=48.0 size=    1792KiB time=00:00:06.68 bitrate=2197.6kbits/s speed=0.0279x elapsed=0:03:59.68    \nframe=  335 fps=1.4 q=48.0 size=    1792KiB time=00:00:06.68 bitrate=2197.6kbits/s speed=0.0278x elapsed=0:04:00.21    \nframe=  336 fps=1.4 q=46.0 size=    1792KiB time=00:00:06.70 bitrate=2191.1kbits/s speed=0.0278x elapsed=0:04:00.74    \nframe=  336 fps=1.4 q=46.0 size=    1792KiB time=00:00:06.70 bitrate=2191.1kbits/s speed=0.0278x elapsed=0:04:01.26    \nframe=  336 fps=1.4 q=46.0 size=    1792KiB time=00:00:06.70 bitrate=2191.1kbits/s speed=0.0277x elapsed=0:04:01.79    \nframe=  337 fps=1.4 q=48.0 size=    1792KiB time=00:00:06.70 bitrate=2191.1kbits/s speed=0.0276x elapsed=0:04:02.32    \nframe=  338 fps=1.4 q=31.0 size=    1792KiB time=00:00:06.72 bitrate=2184.5kbits/s speed=0.0277x elapsed=0:04:02.85    \nframe=  338 fps=1.4 q=31.0 size=    1792KiB time=00:00:06.74 bitrate=2178.1kbits/s speed=0.0277x elapsed=0:04:03.38    \nframe=  339 fps=1.4 q=48.0 size=    1792KiB time=00:00:06.76 bitrate=2171.6kbits/s speed=0.0277x elapsed=0:04:03.91    \nframe=  339 fps=1.4 q=48.0 size=    1792KiB time=00:00:06.76 bitrate=2171.6kbits/s speed=0.0277x elapsed=0:04:04.43    \nframe=  340 fps=1.4 q=47.0 size=    1792KiB time=00:00:06.78 bitrate=2165.2kbits/s speed=0.0277x elapsed=0:04:04.96    \nframe=  341 fps=1.4 q=48.0 size=    1792KiB time=00:00:06.80 bitrate=2158.8kbits/s speed=0.0277x elapsed=0:04:05.48    \nframe=  341 fps=1.4 q=48.0 size=    1792KiB time=00:00:06.80 bitrate=2158.8kbits/s speed=0.0276x elapsed=0:04:06.00    \nframe=  343 fps=1.4 q=48.0 size=    1792KiB time=00:00:06.84 bitrate=2146.2kbits/s speed=0.0277x elapsed=0:04:06.52    \nframe=  343 fps=1.4 q=48.0 size=    1792KiB time=00:00:06.84 bitrate=2146.2kbits/s speed=0.0277x elapsed=0:04:07.04    \nframe=  343 fps=1.4 q=48.0 size=    1792KiB time=00:00:06.84 bitrate=2146.2kbits/s speed=0.0276x elapsed=0:04:07.56    \nframe=  343 fps=1.4 q=48.0 size=    1792KiB time=00:00:06.84 bitrate=2146.2kbits/s speed=0.0276x elapsed=0:04:08.08    \nframe=  343 fps=1.4 q=48.0 size=    1792KiB time=00:00:06.84 bitrate=2146.2kbits/s speed=0.0275x elapsed=0:04:08.60    \nframe=  344 fps=1.4 q=47.0 size=    1792KiB time=00:00:06.86 bitrate=2140.0kbits/s speed=0.0275x elapsed=0:04:09.12    \nframe=  344 fps=1.4 q=47.0 size=    1792KiB time=00:00:06.86 bitrate=2140.0kbits/s speed=0.0275x elapsed=0:04:09.65    \nframe=  344 fps=1.4 q=47.0 size=    1792KiB time=00:00:06.86 bitrate=2140.0kbits/s speed=0.0274x elapsed=0:04:10.17    \nframe=  344 fps=1.4 q=47.0 size=    1792KiB time=00:00:06.86 bitrate=2140.0kbits/s speed=0.0274x elapsed=0:04:10.70    \nframe=  345 fps=1.4 q=48.0 size=    1792KiB time=00:00:06.88 bitrate=2133.7kbits/s speed=0.0274x elapsed=0:04:11.21    \nframe=  346 fps=1.4 q=41.0 size=    1792KiB time=00:00:06.90 bitrate=2127.5kbits/s speed=0.0274x elapsed=0:04:11.74    \nframe=  348 fps=1.4 q=47.0 size=    1792KiB time=00:00:06.94 bitrate=2115.3kbits/s speed=0.0275x elapsed=0:04:12.26    \nframe=  348 fps=1.4 q=47.0 size=    1792KiB time=00:00:06.94 bitrate=2115.3kbits/s speed=0.0275x elapsed=0:04:12.78    \nframe=  348 fps=1.4 q=47.0 size=    1792KiB time=00:00:06.94 bitrate=2115.3kbits/s speed=0.0274x elapsed=0:04:13.32    \nframe=  349 fps=1.4 q=48.0 size=    1792KiB time=00:00:06.96 bitrate=2109.2kbits/s speed=0.0274x elapsed=0:04:13.82    \nframe=  349 fps=1.4 q=48.0 size=    1792KiB time=00:00:06.96 bitrate=2109.2kbits/s speed=0.0274x elapsed=0:04:14.36    \nframe=  350 fps=1.4 q=44.0 size=    1792KiB time=00:00:06.98 bitrate=2103.2kbits/s speed=0.0274x elapsed=0:04:14.88    \nframe=  350 fps=1.4 q=44.0 size=    1792KiB time=00:00:06.98 bitrate=2103.2kbits/s speed=0.0273x elapsed=0:04:15.40    \nframe=  352 fps=1.4 q=47.0 size=    1792KiB time=00:00:07.02 bitrate=2091.2kbits/s speed=0.0274x elapsed=0:04:15.92    \nframe=  352 fps=1.4 q=47.0 size=    1792KiB time=00:00:07.02 bitrate=2091.2kbits/s speed=0.0274x elapsed=0:04:16.45    \nframe=  352 fps=1.4 q=47.0 size=    1792KiB time=00:00:07.02 bitrate=2091.2kbits/s speed=0.0273x elapsed=0:04:16.98    \nframe=  353 fps=1.4 q=49.0 size=    1792KiB time=00:00:07.04 bitrate=2085.2kbits/s speed=0.0273x elapsed=0:04:17.50    \nframe=  355 fps=1.4 q=49.0 size=    1792KiB time=00:00:07.08 bitrate=2073.5kbits/s speed=0.0274x elapsed=0:04:18.02    \nframe=  356 fps=1.4 q=48.0 size=    1792KiB time=00:00:07.10 bitrate=2067.6kbits/s speed=0.0275x elapsed=0:04:18.52    \nframe=  357 fps=1.4 q=49.0 size=    1792KiB time=00:00:07.12 bitrate=2061.8kbits/s speed=0.0275x elapsed=0:04:19.04    \nframe=  358 fps=1.4 q=46.0 size=    1792KiB time=00:00:07.14 bitrate=2056.0kbits/s speed=0.0275x elapsed=0:04:19.56    \nframe=  358 fps=1.4 q=46.0 size=    1792KiB time=00:00:07.14 bitrate=2056.0kbits/s speed=0.0275x elapsed=0:04:20.08    \nframe=  359 fps=1.4 q=49.0 size=    1792KiB time=00:00:07.16 bitrate=2050.3kbits/s speed=0.0275x elapsed=0:04:20.61    \nframe=  359 fps=1.4 q=49.0 size=    1792KiB time=00:00:07.16 bitrate=2050.3kbits/s speed=0.0274x elapsed=0:04:21.13    \nframe=  359 fps=1.4 q=49.0 size=    1792KiB time=00:00:07.16 bitrate=2050.3kbits/s speed=0.0274x elapsed=0:04:21.64    \nframe=  360 fps=1.4 q=48.0 size=    1792KiB time=00:00:07.18 bitrate=2044.6kbits/s speed=0.0274x elapsed=0:04:22.17    \nframe=  360 fps=1.4 q=48.0 size=    1792KiB time=00:00:07.18 bitrate=2044.6kbits/s speed=0.0273x elapsed=0:04:22.69    \nframe=  360 fps=1.4 q=48.0 size=    1792KiB time=00:00:07.18 bitrate=2044.6kbits/s speed=0.0273x elapsed=0:04:23.21    \nframe=  361 fps=1.4 q=49.0 size=    1792KiB time=00:00:07.20 bitrate=2038.9kbits/s speed=0.0273x elapsed=0:04:23.73    \nframe=  361 fps=1.4 q=49.0 size=    1792KiB time=00:00:07.20 bitrate=2038.9kbits/s speed=0.0272x elapsed=0:04:24.26    \nframe=  362 fps=1.4 q=41.0 size=    1792KiB time=00:00:07.22 bitrate=2033.2kbits/s speed=0.0273x elapsed=0:04:24.80    \nframe=  364 fps=1.4 q=47.0 size=    1792KiB time=00:00:07.26 bitrate=2022.0kbits/s speed=0.0274x elapsed=0:04:25.33    \nframe=  364 fps=1.4 q=47.0 size=    1792KiB time=00:00:07.26 bitrate=2022.0kbits/s speed=0.0273x elapsed=0:04:25.86    \nframe=  364 fps=1.4 q=47.0 size=    1792KiB time=00:00:07.26 bitrate=2022.0kbits/s speed=0.0273x elapsed=0:04:26.37    \nframe=  365 fps=1.4 q=49.0 size=    1792KiB time=00:00:07.28 bitrate=2016.5kbits/s speed=0.0273x elapsed=0:04:26.90    \nframe=  365 fps=1.4 q=49.0 size=    1792KiB time=00:00:07.28 bitrate=2016.5kbits/s speed=0.0272x elapsed=0:04:27.43    \nframe=  366 fps=1.4 q=44.0 size=    1792KiB time=00:00:07.30 bitrate=2011.0kbits/s speed=0.0272x elapsed=0:04:27.95    \nframe=  366 fps=1.4 q=44.0 size=    1792KiB time=00:00:07.30 bitrate=2011.0kbits/s speed=0.0272x elapsed=0:04:28.65    \nframe=  368 fps=1.4 q=47.0 size=    1792KiB time=00:00:07.34 bitrate=2000.0kbits/s speed=0.0273x elapsed=0:04:29.17    \nframe=  369 fps=1.4 q=48.0 size=    1792KiB time=00:00:07.36 bitrate=1994.6kbits/s speed=0.0273x elapsed=0:04:29.69    \nframe=  369 fps=1.4 q=48.0 size=    1792KiB time=00:00:07.36 bitrate=1994.6kbits/s speed=0.0272x elapsed=0:04:30.20    \nframe=  372 fps=1.4 q=47.0 size=    1792KiB time=00:00:07.42 bitrate=1978.4kbits/s speed=0.0274x elapsed=0:04:30.71    \nframe=  372 fps=1.4 q=47.0 size=    1792KiB time=00:00:07.42 bitrate=1978.4kbits/s speed=0.0274x elapsed=0:04:31.23    \nframe=  373 fps=1.4 q=48.0 size=    1792KiB time=00:00:07.44 bitrate=1973.1kbits/s speed=0.0274x elapsed=0:04:31.74    \nframe=  375 fps=1.4 q=47.0 size=    1792KiB time=00:00:07.48 bitrate=1962.6kbits/s speed=0.0275x elapsed=0:04:32.31    \nframe=  375 fps=1.4 q=47.0 size=    1792KiB time=00:00:07.48 bitrate=1962.6kbits/s speed=0.0274x elapsed=0:04:33.15    \nframe=  375 fps=1.4 q=47.0 size=    1792KiB time=00:00:07.48 bitrate=1962.6kbits/s speed=0.0273x elapsed=0:04:33.67    \nframe=  375 fps=1.4 q=47.0 size=    1792KiB time=00:00:07.48 bitrate=1962.6kbits/s speed=0.0273x elapsed=0:04:34.18    \nframe=  376 fps=1.4 q=44.0 size=    1792KiB time=00:00:07.50 bitrate=1957.3kbits/s speed=0.0273x elapsed=0:04:34.71    \nframe=  376 fps=1.4 q=44.0 size=    1792KiB time=00:00:07.50 bitrate=1957.3kbits/s speed=0.0273x elapsed=0:04:35.22    \nframe=  377 fps=1.4 q=47.0 size=    1792KiB time=00:00:07.52 bitrate=1952.1kbits/s speed=0.0273x elapsed=0:04:35.73    \nframe=  378 fps=1.4 q=41.0 size=    1792KiB time=00:00:07.54 bitrate=1947.0kbits/s speed=0.0273x elapsed=0:04:36.25    \nframe=  379 fps=1.4 q=48.0 size=    1792KiB time=00:00:07.56 bitrate=1941.8kbits/s speed=0.0273x elapsed=0:04:36.77    \nframe=  380 fps=1.4 q=46.0 size=    1792KiB time=00:00:07.58 bitrate=1936.7kbits/s speed=0.0273x elapsed=0:04:37.28    \nframe=  381 fps=1.4 q=48.0 size=    1792KiB time=00:00:07.60 bitrate=1931.6kbits/s speed=0.0274x elapsed=0:04:37.80    \nframe=  382 fps=1.4 q=43.0 size=    1792KiB time=00:00:07.62 bitrate=1926.5kbits/s speed=0.0274x elapsed=0:04:38.31    \nframe=  384 fps=1.4 q=46.0 size=    1792KiB time=00:00:07.66 bitrate=1916.5kbits/s speed=0.0275x elapsed=0:04:38.83    \nframe=  384 fps=1.4 q=46.0 size=    1792KiB time=00:00:07.66 bitrate=1916.5kbits/s speed=0.0274x elapsed=0:04:39.35    \nframe=  384 fps=1.4 q=46.0 size=    1792KiB time=00:00:07.66 bitrate=1916.5kbits/s speed=0.0274x elapsed=0:04:39.85    \nframe=  386 fps=1.4 q=32.0 size=    1792KiB time=00:00:07.70 bitrate=1906.5kbits/s speed=0.0275x elapsed=0:04:40.37    \nframe=  387 fps=1.4 q=48.0 size=    1792KiB time=00:00:07.72 bitrate=1901.6kbits/s speed=0.0275x elapsed=0:04:40.89    \nframe=  388 fps=1.4 q=47.0 size=    1792KiB time=00:00:07.74 bitrate=1896.6kbits/s speed=0.0275x elapsed=0:04:41.40    \nframe=  389 fps=1.4 q=41.0 size=    1792KiB time=00:00:07.76 bitrate=1891.8kbits/s speed=0.0275x elapsed=0:04:41.92    \nframe=  390 fps=1.4 q=45.0 size=    1792KiB time=00:00:07.78 bitrate=1886.9kbits/s speed=0.0275x elapsed=0:04:42.44    \nframe=  391 fps=1.4 q=47.0 size=    1792KiB time=00:00:07.80 bitrate=1882.1kbits/s speed=0.0276x elapsed=0:04:42.95    \nframe=  391 fps=1.4 q=47.0 size=    1792KiB time=00:00:07.80 bitrate=1882.1kbits/s speed=0.0275x elapsed=0:04:43.47    \nframe=  392 fps=1.4 q=44.0 size=    1792KiB time=00:00:07.82 bitrate=1877.2kbits/s speed=0.0275x elapsed=0:04:43.98    \nframe=  393 fps=1.4 q=47.0 size=    1792KiB time=00:00:07.84 bitrate=1872.5kbits/s speed=0.0276x elapsed=0:04:44.50    \nframe=  394 fps=1.4 q=41.0 size=    1792KiB time=00:00:07.86 bitrate=1867.7kbits/s speed=0.0276x elapsed=0:04:45.01    \nframe=  396 fps=1.4 q=46.0 size=    1792KiB time=00:00:07.90 bitrate=1858.2kbits/s speed=0.0277x elapsed=0:04:45.53    \nframe=  397 fps=1.4 q=48.0 size=    1792KiB time=00:00:07.92 bitrate=1853.5kbits/s speed=0.0277x elapsed=0:04:46.05    \nframe=  398 fps=1.4 q=43.0 size=    1792KiB time=00:00:07.94 bitrate=1848.9kbits/s speed=0.0277x elapsed=0:04:46.56    \nframe=  400 fps=1.4 q=46.0 size=    1792KiB time=00:00:07.98 bitrate=1839.6kbits/s speed=0.0278x elapsed=0:04:47.07    \nframe=  400 fps=1.4 q=46.0 size=    1792KiB time=00:00:07.98 bitrate=1839.6kbits/s speed=0.0277x elapsed=0:04:47.59    \nframe=  401 fps=1.4 q=48.0 size=    1792KiB time=00:00:08.00 bitrate=1835.0kbits/s speed=0.0278x elapsed=0:04:48.10    \nframe=  406 fps=1.4 q=46.0 size=    1792KiB time=00:00:08.10 bitrate=1812.4kbits/s speed=0.0281x elapsed=0:04:48.63    \nframe=  406 fps=1.4 q=46.0 size=    1792KiB time=00:00:08.10 bitrate=1812.4kbits/s speed=0.028x elapsed=0:04:49.14    \nframe=  406 fps=1.4 q=46.0 size=    1792KiB time=00:00:08.10 bitrate=1812.4kbits/s speed=0.028x elapsed=0:04:49.66    \nframe=  408 fps=1.4 q=48.0 size=    1792KiB time=00:00:08.14 bitrate=1803.4kbits/s speed=0.0281x elapsed=0:04:50.17    \nframe=  410 fps=1.4 q=41.0 size=    1792KiB time=00:00:08.18 bitrate=1794.6kbits/s speed=0.0281x elapsed=0:04:50.68    \nframe=  410 fps=1.4 q=41.0 size=    1792KiB time=00:00:08.18 bitrate=1794.6kbits/s speed=0.0281x elapsed=0:04:51.20    \nframe=  410 fps=1.4 q=41.0 size=    1792KiB time=00:00:08.18 bitrate=1794.6kbits/s speed=0.028x elapsed=0:04:51.72    \nframe=  410 fps=1.4 q=41.0 size=    1792KiB time=00:00:08.18 bitrate=1794.6kbits/s speed=0.028x elapsed=0:04:52.23    \nframe=  412 fps=1.4 q=47.0 size=    1792KiB time=00:00:08.22 bitrate=1785.9kbits/s speed=0.0281x elapsed=0:04:52.75    \nframe=  414 fps=1.4 q=44.0 size=    1792KiB time=00:00:08.26 bitrate=1777.2kbits/s speed=0.0282x elapsed=0:04:53.27    \nframe=  414 fps=1.4 q=44.0 size=    1792KiB time=00:00:08.26 bitrate=1777.2kbits/s speed=0.0281x elapsed=0:04:53.78    \nframe=  414 fps=1.4 q=44.0 size=    1792KiB time=00:00:08.26 bitrate=1777.2kbits/s speed=0.0281x elapsed=0:04:54.30    \nframe=  414 fps=1.4 q=44.0 size=    1792KiB time=00:00:08.26 bitrate=1777.2kbits/s speed=0.028x elapsed=0:04:54.81    \nframe=  416 fps=1.4 q=47.0 size=    1792KiB time=00:00:08.30 bitrate=1768.7kbits/s speed=0.0281x elapsed=0:04:55.33    \nframe=  418 fps=1.4 q=32.0 size=    1792KiB time=00:00:08.34 bitrate=1760.2kbits/s speed=0.0282x elapsed=0:04:55.85    \nframe=  418 fps=1.4 q=32.0 size=    1792KiB time=00:00:08.34 bitrate=1760.2kbits/s speed=0.0281x elapsed=0:04:56.36    \nframe=  418 fps=1.4 q=32.0 size=    1792KiB time=00:00:08.34 bitrate=1760.2kbits/s speed=0.0281x elapsed=0:04:56.87    \nframe=  418 fps=1.4 q=32.0 size=    1792KiB time=00:00:08.34 bitrate=1760.2kbits/s speed=0.028x elapsed=0:04:57.39    \nframe=  422 fps=1.4 q=46.0 size=    1792KiB time=00:00:08.42 bitrate=1743.5kbits/s speed=0.0283x elapsed=0:04:57.90    \nframe=  422 fps=1.4 q=46.0 size=    1792KiB time=00:00:08.42 bitrate=1743.5kbits/s speed=0.0282x elapsed=0:04:58.41    \nframe=  422 fps=1.4 q=46.0 size=    1792KiB time=00:00:08.42 bitrate=1743.5kbits/s speed=0.0282x elapsed=0:04:58.94    \nframe=  424 fps=1.4 q=48.0 size=    1792KiB time=00:00:08.46 bitrate=1735.2kbits/s speed=0.0283x elapsed=0:04:59.45    \nframe=  426 fps=1.4 q=41.0 size=    1792KiB time=00:00:08.50 bitrate=1727.1kbits/s speed=0.0283x elapsed=0:04:59.97    \nframe=  426 fps=1.4 q=41.0 size=    1792KiB time=00:00:08.50 bitrate=1727.1kbits/s speed=0.0283x elapsed=0:05:00.48    \nframe=  426 fps=1.4 q=41.0 size=    1792KiB time=00:00:08.50 bitrate=1727.1kbits/s speed=0.0282x elapsed=0:05:01.00    \nframe=  426 fps=1.4 q=41.0 size=    1792KiB time=00:00:08.50 bitrate=1727.1kbits/s speed=0.0282x elapsed=0:05:01.51    \nframe=  428 fps=1.4 q=47.0 size=    1792KiB time=00:00:08.54 bitrate=1719.0kbits/s speed=0.0283x elapsed=0:05:02.03    \nframe=  430 fps=1.4 q=44.0 size=    1792KiB time=00:00:08.58 bitrate=1711.0kbits/s speed=0.0284x elapsed=0:05:02.54    \nframe=  430 fps=1.4 q=44.0 size=    1792KiB time=00:00:08.58 bitrate=1711.0kbits/s speed=0.0283x elapsed=0:05:03.05    \nframe=  432 fps=1.4 q=47.0 size=    1792KiB time=00:00:08.62 bitrate=1703.0kbits/s speed=0.0284x elapsed=0:05:03.57    \nframe=  434 fps=1.4 q=32.0 size=    1792KiB time=00:00:08.66 bitrate=1695.2kbits/s speed=0.0285x elapsed=0:05:04.10    \nframe=  434 fps=1.4 q=32.0 size=    1792KiB time=00:00:08.66 bitrate=1695.2kbits/s speed=0.0284x elapsed=0:05:04.61    \nframe=  434 fps=1.4 q=32.0 size=    1792KiB time=00:00:08.66 bitrate=1695.2kbits/s speed=0.0284x elapsed=0:05:05.12    \nframe=  438 fps=1.4 q=45.0 size=    1792KiB time=00:00:08.74 bitrate=1679.6kbits/s speed=0.0286x elapsed=0:05:05.64    \nframe=  438 fps=1.4 q=45.0 size=    1792KiB time=00:00:08.74 bitrate=1679.6kbits/s speed=0.0285x elapsed=0:05:06.15    \nframe=  440 fps=1.4 q=47.0 size=    1792KiB time=00:00:08.78 bitrate=1672.0kbits/s speed=0.0286x elapsed=0:05:06.67    \nframe=  442 fps=1.4 q=41.0 size=    1792KiB time=00:00:08.82 bitrate=1664.4kbits/s speed=0.0287x elapsed=0:05:07.19    \nframe=  442 fps=1.4 q=41.0 size=    1792KiB time=00:00:08.82 bitrate=1664.4kbits/s speed=0.0287x elapsed=0:05:07.70    \nframe=  442 fps=1.4 q=41.0 size=    1792KiB time=00:00:08.82 bitrate=1664.4kbits/s speed=0.0286x elapsed=0:05:08.21    \nframe=  444 fps=1.4 q=47.0 size=    1792KiB time=00:00:08.86 bitrate=1656.9kbits/s speed=0.0287x elapsed=0:05:08.73    \nframe=  446 fps=1.4 q=44.0 size=    1792KiB time=00:00:08.90 bitrate=1649.4kbits/s speed=0.0288x elapsed=0:05:09.38    \nframe=  448 fps=1.4 q=45.0 size=    1792KiB time=00:00:08.94 bitrate=1642.1kbits/s speed=0.0288x elapsed=0:05:09.94    \nframe=  450 fps=1.4 q=31.0 size=    1792KiB time=00:00:08.98 bitrate=1634.8kbits/s speed=0.0289x elapsed=0:05:10.50    \nframe=  450 fps=1.4 q=31.0 size=    1792KiB time=00:00:08.98 bitrate=1634.8kbits/s speed=0.0289x elapsed=0:05:11.07    \nframe=  450 fps=1.4 q=31.0 size=    1792KiB time=00:00:08.98 bitrate=1634.8kbits/s speed=0.0288x elapsed=0:05:11.59    \nframe=  450 fps=1.4 q=31.0 size=    1792KiB time=00:00:08.98 bitrate=1634.8kbits/s speed=0.0288x elapsed=0:05:12.12    \nframe=  452 fps=1.4 q=47.0 size=    1792KiB time=00:00:09.02 bitrate=1627.5kbits/s speed=0.0289x elapsed=0:05:12.63    \nframe=  452 fps=1.4 q=47.0 size=    1792KiB time=00:00:09.02 bitrate=1627.5kbits/s speed=0.0288x elapsed=0:05:13.16    \nframe=  454 fps=1.4 q=45.0 size=    1792KiB time=00:00:09.06 bitrate=1620.3kbits/s speed=0.0289x elapsed=0:05:13.71    \nframe=  454 fps=1.4 q=45.0 size=    1792KiB time=00:00:09.06 bitrate=1620.3kbits/s speed=0.0288x elapsed=0:05:14.23    \nframe=  454 fps=1.4 q=45.0 size=    1792KiB time=00:00:09.06 bitrate=1620.3kbits/s speed=0.0288x elapsed=0:05:14.74    \nframe=  456 fps=1.4 q=44.0 size=    1792KiB time=00:00:09.10 bitrate=1613.2kbits/s speed=0.0289x elapsed=0:05:15.27    \nframe=  458 fps=1.5 q=40.0 size=    1792KiB time=00:00:09.14 bitrate=1606.1kbits/s speed=0.0289x elapsed=0:05:15.80    \nframe=  458 fps=1.4 q=40.0 size=    1792KiB time=00:00:09.14 bitrate=1606.1kbits/s speed=0.0289x elapsed=0:05:16.33    \nframe=  458 fps=1.4 q=40.0 size=    1792KiB time=00:00:09.14 bitrate=1606.1kbits/s speed=0.0288x elapsed=0:05:16.86    \nframe=  458 fps=1.4 q=40.0 size=    1792KiB time=00:00:09.14 bitrate=1606.1kbits/s speed=0.0288x elapsed=0:05:17.39    \nframe=  460 fps=1.4 q=46.0 size=    1792KiB time=00:00:09.18 bitrate=1599.1kbits/s speed=0.0289x elapsed=0:05:17.92    \nframe=  462 fps=1.5 q=43.0 size=    1792KiB time=00:00:09.22 bitrate=1592.2kbits/s speed=0.0289x elapsed=0:05:18.50    \nframe=  462 fps=1.4 q=43.0 size=    1792KiB time=00:00:09.22 bitrate=1592.2kbits/s speed=0.0289x elapsed=0:05:19.03    \nframe=  466 fps=1.5 q=31.0 size=    1792KiB time=00:00:09.30 bitrate=1578.5kbits/s speed=0.0291x elapsed=0:05:19.55    \nframe=  466 fps=1.5 q=31.0 size=    1792KiB time=00:00:09.30 bitrate=1578.5kbits/s speed=0.0291x elapsed=0:05:20.08    \nframe=  466 fps=1.5 q=31.0 size=    1792KiB time=00:00:09.30 bitrate=1578.5kbits/s speed=0.029x elapsed=0:05:20.61    \nframe=  468 fps=1.5 q=47.0 size=    1792KiB time=00:00:09.34 bitrate=1571.7kbits/s speed=0.0291x elapsed=0:05:21.16    \nframe=  470 fps=1.5 q=45.0 size=    1792KiB time=00:00:09.38 bitrate=1565.0kbits/s speed=0.0291x elapsed=0:05:21.83    \nframe=  470 fps=1.5 q=45.0 size=    1792KiB time=00:00:09.38 bitrate=1565.0kbits/s speed=0.0291x elapsed=0:05:22.42    \nframe=  470 fps=1.5 q=45.0 size=    1792KiB time=00:00:09.38 bitrate=1565.0kbits/s speed=0.029x elapsed=0:05:22.93    \nframe=  474 fps=1.5 q=40.0 size=    1792KiB time=00:00:09.46 bitrate=1551.8kbits/s speed=0.0292x elapsed=0:05:23.47    \nframe=  474 fps=1.5 q=40.0 size=    1792KiB time=00:00:09.46 bitrate=1551.8kbits/s speed=0.0292x elapsed=0:05:24.04    \nframe=  474 fps=1.5 q=40.0 size=    1792KiB time=00:00:09.46 bitrate=1551.8kbits/s speed=0.0291x elapsed=0:05:24.63    \nframe=  474 fps=1.5 q=40.0 size=    1792KiB time=00:00:09.46 bitrate=1551.8kbits/s speed=0.0291x elapsed=0:05:25.20    \nframe=  476 fps=1.5 q=48.0 size=    1792KiB time=00:00:09.50 bitrate=1545.3kbits/s speed=0.0292x elapsed=0:05:25.75    \nframe=  478 fps=1.5 q=47.0 size=    1792KiB time=00:00:09.54 bitrate=1538.8kbits/s speed=0.0292x elapsed=0:05:26.26    \nframe=  478 fps=1.5 q=47.0 size=    1792KiB time=00:00:09.54 bitrate=1538.8kbits/s speed=0.0292x elapsed=0:05:26.81    \nframe=  482 fps=1.5 q=31.0 size=    1792KiB time=00:00:09.62 bitrate=1526.0kbits/s speed=0.0294x elapsed=0:05:27.34    \nframe=  482 fps=1.5 q=31.0 size=    1792KiB time=00:00:09.62 bitrate=1526.0kbits/s speed=0.0293x elapsed=0:05:27.89    \nframe=  486 fps=1.5 q=50.0 size=    1792KiB time=00:00:09.70 bitrate=1513.4kbits/s speed=0.0295x elapsed=0:05:28.47    \nframe=  486 fps=1.5 q=50.0 size=    1792KiB time=00:00:09.70 bitrate=1513.4kbits/s speed=0.0295x elapsed=0:05:29.03    \nframe=  490 fps=1.5 q=47.0 size=    1792KiB time=00:00:09.78 bitrate=1501.0kbits/s speed=0.0297x elapsed=0:05:29.61    \nframe=  490 fps=1.5 q=47.0 size=    1792KiB time=00:00:09.78 bitrate=1501.0kbits/s speed=0.0296x elapsed=0:05:30.21    \nframe=  490 fps=1.5 q=47.0 size=    1792KiB time=00:00:09.78 bitrate=1501.0kbits/s speed=0.0296x elapsed=0:05:30.78    \nframe=  490 fps=1.5 q=47.0 size=    1792KiB time=00:00:09.78 bitrate=1501.0kbits/s speed=0.0295x elapsed=0:05:31.34    \nframe=  492 fps=1.5 q=50.0 size=    1792KiB time=00:00:09.82 bitrate=1494.9kbits/s speed=0.0296x elapsed=0:05:31.91    \nframe=  494 fps=1.5 q=50.0 size=    1792KiB time=00:00:09.86 bitrate=1488.9kbits/s speed=0.0297x elapsed=0:05:32.48    \nframe=  494 fps=1.5 q=50.0 size=    1792KiB time=00:00:09.86 bitrate=1488.9kbits/s speed=0.0296x elapsed=0:05:33.01    \nframe=  496 fps=1.5 q=50.0 size=    1792KiB time=00:00:09.90 bitrate=1482.8kbits/s speed=0.0297x elapsed=0:05:33.58    \n[out#0/matroska @ 000002b5857a8ec0] video:2905KiB audio:0KiB subtitle:0KiB other streams:0KiB global headers:0KiB muxing overhead: 0.098935%\nframe=  500 fps=1.5 q=44.0 Lsize=    2908KiB time=00:00:09.98 bitrate=2386.9kbits/s speed=0.0299x elapsed=0:05:33.86    \n",
  "seconds": 335.99992179870605,
  "probe_out": {}
}